<?xml version="1.0" encoding="UTF-8" standalone="no"?>
<svg
   xmlns:dc="http://purl.org/dc/elements/1.1/"
   xmlns:cc="http://creativecommons.org/ns#"
   xmlns:rdf="http://www.w3.org/1999/02/22-rdf-syntax-ns#"
   xmlns:svg="http://www.w3.org/2000/svg"
   xmlns="http://www.w3.org/2000/svg"
   xmlns:xlink="http://www.w3.org/1999/xlink"
   xmlns:sodipodi="http://sodipodi.sourceforge.net/DTD/sodipodi-0.dtd"
   xmlns:inkscape="http://www.inkscape.org/namespaces/inkscape"
   version="1.1"
   x="0px"
   y="0px"
   width="1111"
   height="932"
   viewBox="0, 0, 1111, 932"
   id="svg3826"
   sodipodi:docname="Gears.svg"
   inkscape:version="0.92.1 unknown">
  <metadata
     id="metadata3830">
    <rdf:RDF>
      <cc:Work
         rdf:about="">
        <dc:format>image/svg+xml</dc:format>
        <dc:type
           rdf:resource="http://purl.org/dc/dcmitype/StillImage" />
        <dc:title></dc:title>
      </cc:Work>
    </rdf:RDF>
  </metadata>
  <sodipodi:namedview
     pagecolor="#ffffff"
     bordercolor="#666666"
     borderopacity="1"
     objecttolerance="10"
     gridtolerance="10"
     guidetolerance="10"
     inkscape:pageopacity="0"
     inkscape:pageshadow="2"
     inkscape:window-width="1366"
     inkscape:window-height="708"
     id="namedview3828"
     showgrid="false"
     inkscape:pagecheckerboard="true"
     inkscape:zoom="0.56866953"
     inkscape:cx="517.01349"
     inkscape:cy="416.24966"
     inkscape:window-x="0"
     inkscape:window-y="31"
     inkscape:window-maximized="1"
     inkscape:current-layer="layer4" />
  <g
     id="Background">
    <rect
       x="0"
       y="0"
       width="1111"
       height="932"
       fill="#000000"
       fill-opacity="0"
       id="rect3775" />
  </g>
  <defs
     id="defs3824">
    <linearGradient
       id="linearGradient28888">
      <stop
         id="stop28890"
         offset="0"
         style="stop-color:black;stop-opacity:1" />
      <stop
         id="stop29799"
         offset="0.05"
         style="stop-color:#35005e;stop-opacity:1" />
      <stop
         id="stop28896"
         offset="0.1"
         style="stop-color:#5000a2;stop-opacity:1" />
      <stop
         id="stop29801"
         offset="0.15000001"
         style="stop-color:#4a00d3;stop-opacity:1" />
      <stop
         id="stop28898"
         offset="0.2"
         style="stop-color:#2802e9;stop-opacity:1" />
      <stop
         id="stop29803"
         offset="0.25"
         style="stop-color:#0e3af8;stop-opacity:1" />
      <stop
         id="stop28900"
         offset="0.30000001"
         style="stop-color:#018de6;stop-opacity:1" />
      <stop
         id="stop29805"
         offset="0.35000002"
         style="stop-color:#00cea0;stop-opacity:1" />
      <stop
         id="stop28902"
         offset="0.40000001"
         style="stop-color:#00d24a;stop-opacity:1" />
      <stop
         id="stop29807"
         offset="0.44999999"
         style="stop-color:#00bc0d;stop-opacity:1" />
      <stop
         id="stop28904"
         offset="0.5"
         style="stop-color:#00b700;stop-opacity:1" />
      <stop
         id="stop29809"
         offset="0.55000001"
         style="stop-color:#00bc0d;stop-opacity:1" />
      <stop
         id="stop28906"
         offset="0.60000002"
         style="stop-color:#65d200;stop-opacity:1" />
      <stop
         id="stop29811"
         offset="0.64999998"
         style="stop-color:#bad600;stop-opacity:1" />
      <stop
         id="stop28908"
         offset="0.69999999"
         style="stop-color:#f9b700;stop-opacity:1" />
      <stop
         id="stop29813"
         offset="0.75"
         style="stop-color:#ff7a00;stop-opacity:1" />
      <stop
         id="stop28910"
         offset="0.80000001"
         style="stop-color:#f40;stop-opacity:1" />
      <stop
         id="stop29815"
         offset="0.85000002"
         style="stop-color:#ff2501;stop-opacity:1" />
      <stop
         id="stop28912"
         offset="0.89999998"
         style="stop-color:#d00e00;stop-opacity:1" />
      <stop
         id="stop29817"
         offset="0.94999999"
         style="stop-color:#7b0200;stop-opacity:1" />
      <stop
         id="stop28892"
         offset="1"
         style="stop-color:black;stop-opacity:1" />
    </linearGradient>
    <linearGradient
       gradientTransform="matrix(0.950226,0,0,0.868966,0.142211,18.84154)"
       gradientUnits="userSpaceOnUse"
       xlink:href="#linearGradient28888"
       id="linearGradient28894"
       y2="102.36218"
       x2="634.28571"
       y1="102.36218"
       x1="2.8571429" />
    <pattern
       patternUnits="userSpaceOnUse"
       width="953.99864"
       height="894.68761"
       patternTransform="translate(86.394953,-48.626212)"
       id="pattern6808">
      <g
         transform="matrix(0.72906548,0.81107079,-7.1744354,5.6672936,1029.5344,-409.17664)"
         id="layer1">
        <rect
           width="600"
           height="72"
           x="2.8571429"
           y="71.790756"
           style="color:#000000;display:inline;overflow:visible;visibility:visible;opacity:1;fill:url(#linearGradient28894);fill-opacity:1;fill-rule:nonzero;stroke:none;stroke-width:0.30000001;stroke-linecap:square;stroke-linejoin:miter;stroke-miterlimit:4;stroke-dasharray:none;stroke-dashoffset:0;stroke-opacity:1;marker:none;marker-start:none;marker-mid:none;marker-end:none"
           id="rect28001" />
      </g>
    </pattern>
  </defs>
  <g
     inkscape:groupmode="layer"
     id="layer4"
     inkscape:label="Layer 1"
     style="display:inline">
    <g
       id="Brain Shape"
       style="fill:#ffffff">
      <path
         d="m 265.523,215.227 c 27.565,-17.003 12.821,-13.854 39.104,-20.151 26.283,-6.298 17.309,-2.519 17.309,-2.519 l 27.565,-14.484 13.462,-5.038 13.462,-5.667 14.745,-5.038 16.667,-5.038 c 0,0 10.898,-2.518 12.18,-2.518 1.282,0 14.103,-3.779 14.103,-3.779 0,0 10.257,-6.297 10.898,-6.297 0.641,0 13.463,-2.519 13.463,-2.519 l 14.103,-0.63 14.103,-1.889 12.18,-3.148 15.385,-1.26 c 0,0 10.257,0 10.898,0.63 0.641,0.63 13.462,0.63 13.462,0.63 0,0 12.822,-1.889 13.463,-1.26 0.641,0.63 14.103,3.779 14.103,3.779 l 33.128,0.496 9.616,1.574 10.257,0.158 c 0,0 18.11,2.833 18.27,2.991 0.16,0.157 18.815,2.991 18.815,3.148 0,0.158 12.276,2.834 12.276,2.834 l 24.841,0.472 11.699,6.14 11.7,4.408 c 0,0 4.167,4.093 4.487,4.093 0.321,0 12.002,9.505 12.002,9.505 l 16.026,7.767 c 0,0 13.89,10.705 14.317,11.125 0.428,0.419 11.112,13.643 11.112,13.643 0,0 3.846,8.397 4.06,8.817 0.214,0.419 11.112,11.125 11.325,11.334 0.214,0.21 12.821,9.866 13.035,10.076 0.214,0.21 5.983,3.149 6.411,3.568 0.427,0.42 6.838,4.199 6.838,4.199 l 7.906,6.717 c 0,0 4.487,6.087 4.915,6.717 0.427,0.629 3.846,7.766 3.846,7.766 l 3.846,9.026 c 0,0 2.351,5.248 2.565,5.458 0.213,0.209 1.709,7.136 1.709,7.136 l 3.846,8.187 2.992,5.247 3.846,6.508 c 0,0 3.206,6.297 3.633,6.507 0.427,0.21 3.846,5.877 3.846,5.877 l 5.983,6.507 4.06,7.557 2.778,7.556 2.351,7.767 2.137,6.927 2.35,5.038 3.206,5.247 3.205,11.545 3.632,13.854 1.924,10.075 0.854,7.137 v 5.458 l -0.213,6.507 0.854,6.927 -0.213,5.037 -3.206,5.038 1.71,3.988 -0.214,3.569 -2.137,3.778 -4.701,5.458 -5.128,6.087 -5.983,5.877 -6.838,6.088 -5.983,3.988 -6.197,3.358 -6.411,2.729 -5.769,2.729 -9.402,1.679 -0.642,12.805 -2.991,12.594 -4.701,10.705 -3.419,8.606 -0.641,3.149 v 9.026 l -0.855,3.988 -1.709,3.988 -24.361,24.769 c 0,0 -7.479,6.927 -7.479,6.927 0,0 -5.555,3.988 -5.555,3.988 l -2.351,2.099 -2.35,2.519 -2.351,3.359 -3.205,3.778 -7.266,5.861 -7.906,6.601 -9.616,5.59 -8.333,3.778 -9.616,3.779 -10.257,2.519 -7.907,1.889 -8.547,1.049 -7.265,-0.419 -5.342,-1.26 h -4.915 l -5.129,0.21 -4.273,1.05 -2.778,2.518 -0.855,2.939 1.282,1.679 8.12,2.519 4.06,2.309 3.205,3.359 3.847,4.828 2.778,2.308 4.273,4.618 3.847,3.359 c 0,0 2.778,2.309 2.991,2.729 0.214,0.419 1.924,1.679 1.924,1.679 l -13.249,9.236 -2.992,-1.679 -3.632,-2.099 -2.351,-2.729 -3.632,-2.519 -3.419,-2.939 -3.419,-2.939 -4.06,-0.419 c 0,0 -4.222,-0.84 -4.222,-0.63 0,0.21 1.181,2.939 1.181,2.939 l 2.186,2.518 3.419,2.519 2.991,0.84 1.924,2.519 2.136,2.729 0.855,4.827 0.855,4.618 0.855,3.989 0.854,3.778 3.419,5.458 3.633,5.037 -3.205,3.149 -3.419,2.309 -4.488,0.21 c 0,0 -2.777,-1.05 -2.777,-1.05 0,0 -3.633,-2.729 -3.633,-2.729 l -2.992,-2.099 -2.613,-2.938 -2.088,-2.519 c 0,0 -1.812,-2.519 -1.812,-2.729 0,-0.21 0,-3.778 0,-3.778 v -3.149 -2.939 l -1.393,-2.518 -1.71,-0.84 0.855,-1.889 -2.281,-2.099 -2.847,-2.519 -3.874,-4.618 -2.724,-3.988 -2.163,-5.248 -2.565,-5.038 -3.632,-4.828 -2.778,-4.408 -4.701,-3.568 -4.06,-3.359 -5.556,-4.408 -12.607,-11.334 -9.616,-9.159 -6.197,-6.711 -5.129,-7.22 -5.128,-5.668 -5.556,-7.346 -4.06,-3.359 -3.846,-0.63 c 0,0 -3.206,-0.21 -3.419,0 -0.214,0.21 -3.205,0.21 -3.205,0.21 l -3.206,-0.839 -2.35,-1.26 V 576.7 c 0,0 -7.907,-5.547 -7.693,-5.757 0.214,-0.21 -6.838,-3.521 -6.838,-3.521 l -8.975,-6.134 -4.701,-2.147 -8.547,-6.25 -9.402,-4.828 -5.77,-3.358 -3.205,-1.889 -6.411,5.038 -6.838,3.988 -5.128,4.408 -8.334,4.051 -7.265,2.481 -4.701,1.234 -10.684,0.21 -9.83,0.21 -7.052,-1.654 -5.128,-3.641 c 0,0 -3.633,-5.41 -3.633,-5.41 0,0 -3.632,-2.099 -3.632,-2.099 0,0 -6.197,-2.309 -6.197,-2.519 0,-0.21 -8.334,-1.679 -8.334,-1.469 0,0.21 -11.539,-2.309 -11.539,-2.309 0,0 -9.829,-1.68 -9.829,-1.47 0,0.21 -8.334,-1.679 -8.334,-1.679 l -8.12,-1.679 -7.052,-2.939 -2.991,-3.358 -0.855,-3.989 0.427,-2.938 -3.846,-5.038 c 0,0 -3.846,-3.359 -3.846,-3.568 0,-0.21 -3.419,-3.779 -3.419,-3.779 0,0 -2.137,-2.729 -2.137,-2.729 l -2.137,-5.037 0.855,-3.989 1.068,-4.198 1.282,-3.568 -0.641,-3.149 c 0,0 -3.846,-2.518 -3.846,-2.309 0,0.21 -8.548,-1.889 -8.548,-1.889 l -12.607,-0.839 h -7.906 -12.394 -8.761 c 0,0 -4.06,-1.05 -4.06,-0.84 0,0.21 -3.206,-1.05 -3.419,-1.05 -0.214,0 -5.556,-2.518 -5.556,-2.518 l -15.172,-10.496 -13.462,-9.655 -9.829,-10.076 -1.496,-3.149 -1.923,-2.518 c 0,0 -3.206,-2.309 -3.206,-2.309 0,0 -2.564,-1.47 -2.35,-1.68 0.214,-0.21 -2.137,-4.198 -2.137,-4.198 l -5.342,-5.877 c 0,0 -5.342,-9.236 -5.342,-9.236 0,0 -4.274,-8.816 -4.274,-8.816 l -2.992,-7.767 -4.914,-10.915 -1.496,-2.729 1.709,-6.507 c 0,0 -6.197,-5.037 -6.197,-5.247 0,-0.21 -3.418,-6.717 -3.418,-6.717 l -1.924,-6.927 -0.854,-9.026 1.282,-9.656 0.427,-6.507 c 0,0 1.71,-6.507 1.71,-6.717 0,-0.21 0.641,-5.877 1.068,-5.667 0.427,0.209 0.641,-5.668 0.641,-5.668 l -1.923,-6.507 -0.855,-6.927 2.137,-4.828 4.06,-3.988 5.128,-3.358 c 0,0 2.992,-3.989 3.206,-3.989 0.213,0 1.496,-5.247 1.496,-5.247 l -1.924,-2.099 -1.282,-5.038 1.282,-3.778 3.419,-5.458 4.06,-3.359 4.274,-3.568 4.701,-1.679 3.419,-2.309 5.129,-3.149 3.205,-6.297 4.701,-8.606 2.564,-5.458 c 0,0 2.778,-6.717 2.992,-6.927 0.213,-0.209 3.632,-5.667 3.632,-5.667 l 3.206,-4.618 z"
         id="path3778"
         style="fill:#ffffff;fill-opacity:0;stroke:#000000;stroke-width:4;stroke-linecap:round;stroke-linejoin:round"
         inkscape:connector-curvature="0" />
    </g>
    <path
       style="fill:#ffffff;stroke:#ffffff;stroke-width:1.75849056"
       d="m 671.52532,698.65404 c -4.72601,-4.14949 -6.17684,-6.95793 -6.89752,-13.35178 -0.68832,-6.10678 -2.41536,-9.67775 -7.02629,-14.52823 -3.36252,-3.53718 -8.37049,-10.66897 -11.12881,-15.84843 -3.11771,-5.8543 -9.36211,-13.13672 -16.50473,-19.24831 -18.97811,-16.2387 -27.97514,-25.17361 -39.30775,-39.03638 -13.45536,-16.45944 -14.72942,-17.46023 -22.31542,-17.52899 -4.02816,-0.0366 -6.86821,-1.17177 -8.17797,-3.26903 -2.62695,-4.20644 -52.90777,-35.47368 -57.04517,-35.47368 -0.95319,0 -6.19386,3.29539 -11.64595,7.32309 -13.5347,9.99866 -24.25787,13.77879 -39.08659,13.77879 -11.64138,0 -12.5373,-0.30611 -20.13076,-6.87821 -7.28131,-6.30192 -17.55236,-10.62612 -19.82992,-8.34856 -0.51386,0.51387 -3.02908,0.073 -5.58934,-0.97974 -2.56028,-1.05272 -8.61165,-2.51371 -13.4475,-3.24661 -12.47645,-1.89091 -24.09874,-5.03315 -26.74775,-7.23164 -1.24704,-1.03494 -2.26734,-3.62519 -2.26734,-5.7561 0,-2.1309 -2.08358,-5.79278 -4.63017,-8.13752 -8.67812,-7.99019 -10.89752,-13.22339 -8.85439,-20.87801 2.04688,-7.66866 -0.71475,-13.40086 -5.56036,-11.54143 -1.46027,0.56036 -3.24618,0.0623 -3.9687,-1.10673 -0.88348,-1.42949 -9.9303,-2.45925 -27.6265,-3.14453 l -26.31283,-1.01899 -12.95937,-8.77847 c -12.01271,-8.13723 -33.87922,-28.92877 -43.39562,-41.26232 -6.18793,-8.01972 -19.68074,-38.03406 -19.68074,-43.77917 0,-2.79888 -1.23916,-6.11729 -2.75368,-7.37423 -6.7786,-5.62573 -8.29906,-12.15857 -6.91245,-29.69997 0.73058,-9.2421 1.42385,-22.77894 1.54062,-30.08188 0.21157,-13.232 0.23824,-13.30275 7.68589,-20.38999 7.42702,-7.0676 9.22923,-12.23138 5.55218,-15.90843 -4.07625,-4.07625 3.69125,-13.24191 16.98631,-20.04385 6.1459,-3.14432 8.29629,-5.96306 15.29019,-20.04241 9.77468,-19.6773 14.76643,-25.63434 30.57554,-36.48817 11.36439,-7.80228 23.70722,-12.16233 40.58698,-14.33716 2.67908,-0.34518 12.78427,-4.63611 22.45597,-9.5354 22.09979,-11.19487 46.10184,-20.03668 72.08846,-26.55575 11.12514,-2.79089 23.02226,-6.72327 26.43804,-8.73863 4.51486,-2.66383 11.5973,-4.16915 25.94013,-5.51337 10.85127,-1.017 22.89488,-2.73688 26.76356,-3.82195 8.64614,-2.42505 52.95031,-2.36743 79.13207,0.10291 10.63887,1.00381 29.63057,2.65373 42.20378,3.66648 12.5732,1.01275 30.30021,3.42507 39.39333,5.3607 9.09312,1.93563 21.35859,3.52263 27.25661,3.52668 7.94009,0.005 12.96915,1.14658 19.3745,4.39623 4.75797,2.41388 9.5204,4.38887 10.58318,4.38887 1.06278,0 5.86259,3.24778 10.66624,7.21729 4.80367,3.96952 13.42307,9.58437 19.15426,12.47746 12.01682,6.06608 27.17787,20.44727 32.44935,30.78022 4.42663,8.67693 15.72689,18.88273 35.00123,31.61132 13.93378,9.20173 14.79304,10.16327 21.54151,24.10559 3.86586,7.98687 7.03997,15.65076 7.05358,17.03088 0.0369,3.74603 13.35141,27.55991 21.38557,38.24954 4.20686,5.59731 9.07986,15.40656 12.11656,24.39028 2.79377,8.26509 5.80366,15.92161 6.68862,17.01451 6.23654,7.70182 14.70752,64.00114 10.41603,69.22648 -0.98258,1.1964 -1.29882,4.11838 -0.70277,6.49328 0.863,3.43844 -0.68275,6.44066 -7.58859,14.73886 -10.56582,12.6961 -26.16998,23.41467 -40.20983,27.62026 l -10.48414,3.1405 -0.89861,10.72345 c -0.49992,5.96589 -3.32784,16.79012 -6.37403,24.39755 -3.15395,7.87651 -5.46232,16.82334 -5.44447,21.10188 0.0303,7.26776 -0.5286,7.97216 -25.93773,32.68983 -39.0909,38.02713 -45.37368,42.36626 -71.86846,49.63498 -10.97929,3.01214 -16.29725,3.51329 -27.80054,2.61989 -15.99609,-1.24234 -22.6413,0.84589 -23.58341,7.41093 -0.45078,3.14121 0.80846,4.52326 6.15471,6.755 5.27894,2.20361 26.94409,21.7323 26.94409,24.28704 0,0.3109 -1.92411,1.826 -4.27579,3.36689 -4.10115,2.68717 -4.57848,2.5487 -11.68705,-3.39033 -9.97796,-8.33638 -13.51794,-10.0428 -18.3288,-8.83535 -5.68284,1.4263 -3.8088,7.4971 3.67792,11.91437 4.87091,2.87392 6.12086,4.99778 7.85365,13.34456 1.13343,5.45967 3.22538,11.70409 4.64879,13.87647 2.78549,4.25121 1.833,7.62146 -2.15395,7.62146 -1.36002,0 -5.16597,-2.36466 -8.45766,-5.25479 z"
       id="path6943"
       inkscape:connector-curvature="0" />
    <g
       aria-label="DevOpsDays Unicorpolis"
       style="font-style:normal;font-variant:normal;font-weight:normal;font-stretch:normal;font-size:40px;line-height:1.25;font-family:'Yanone Kaffeesatz';-inkscape-font-specification:'Yanone Kaffeesatz';letter-spacing:0px;word-spacing:0px;fill:#000000;fill-opacity:1;stroke:#ffffff;stroke-width:3;stroke-miterlimit:4;stroke-dasharray:none;stroke-opacity:1"
       id="text6947">
      <path
         d="m 230.14429,718.84529 c -2.016,0 -2.592,0.672 -2.592,1.824 v 65.376 h 12 c 11.808,0 18.72,-8.832 18.72,-37.056 0,-23.328 -6.24,-30.144 -18.72,-30.144 z m 5.184,59.808 v -52.704 h 4.416 c 6.528,0 9.792,4.512 9.792,22.272 0,26.688 -4.8,30.432 -9.792,30.432 z"
         style="font-size:96px;stroke:#ffffff;stroke-width:3;stroke-miterlimit:4;stroke-dasharray:none;stroke-opacity:1"
         id="path6949" />
      <path
         d="m 280.51279,779.51729 c -5.856,0 -8.64,-2.688 -9.024,-13.056 4.8,0 13.824,-0.288 20.16,-1.536 0.768,-3.456 1.056,-8.16 1.056,-12.48 0,-10.272 -4.128,-15.36 -12.192,-15.36 -8.448,0 -16.992,3.456 -16.992,27.456 0,18.816 6.432,22.464 15.36,22.464 7.2,0 13.248,-2.304 13.248,-5.28 0,-1.536 -0.192,-3.744 -0.672,-5.28 -3.264,1.92 -7.104,3.072 -10.944,3.072 z m -0.864,-35.616 c 4.224,0 5.472,2.496 5.568,9.504 0,1.824 -0.096,4.032 -0.48,5.76 -3.36,0.96 -9.504,1.152 -13.248,1.056 0.672,-13.056 4.128,-16.32 8.16,-16.32 z"
         style="font-size:96px;stroke:#ffffff;stroke-width:3;stroke-miterlimit:4;stroke-dasharray:none;stroke-opacity:1"
         id="path6951" />
      <path
         d="m 306.94429,781.91729 c 0.672,2.784 1.536,4.704 3.36,4.704 1.248,0 4.032,0 5.472,-0.288 l 11.04,-48.288 c -7.776,0 -7.872,0 -8.16,1.728 l -2.592,13.632 c -2.016,10.08 -3.648,24.384 -3.648,24.384 h -0.192 c 0,0 -1.728,-14.304 -3.84,-24.288 l -3.072,-15.456 c -6.912,0 -8.352,0 -8.352,1.344 0,0.288 0.096,0.576 0.192,1.056 z"
         style="font-size:96px;stroke:#ffffff;stroke-width:3;stroke-miterlimit:4;stroke-dasharray:none;stroke-opacity:1"
         id="path6953" />
      <path
         d="m 331.20829,752.06129 c 0,27.648 4.896,34.944 17.376,34.944 12.576,0 18.048,-8.832 18.048,-35.232 0,-25.92 -4.608,-33.888 -16.992,-33.888 -12.48,0 -18.432,8.64 -18.432,34.176 z m 8.736,1.92 c 0,-20.832 2.688,-28.128 9.504,-28.128 6.912,0 8.832,6.816 8.832,26.112 0,19.584 -2.4,27.072 -9.408,27.072 -6.912,0 -8.928,-7.104 -8.928,-25.056 z"
         style="font-size:96px;stroke:#ffffff;stroke-width:3;stroke-miterlimit:4;stroke-dasharray:none;stroke-opacity:1"
         id="path6955" />
      <path
         d="m 373.99429,801.59729 c 0,2.688 1.056,3.36 3.744,3.36 1.248,0 2.784,-0.192 4.032,-0.576 v -20.064 c 1.44,1.44 4.032,2.688 7.584,2.688 6.528,0 14.304,-4.128 14.304,-29.952 0,-15.744 -6.144,-19.968 -15.648,-19.968 -5.184,0 -10.08,1.344 -14.016,3.84 z m 7.776,-55.968 c 1.632,-1.152 3.552,-1.824 5.856,-1.824 4.992,0 7.488,2.592 7.488,14.112 0,20.064 -5.088,22.176 -8.16,22.176 -1.92,0 -3.84,-0.96 -5.184,-3.168 z"
         style="font-size:96px;stroke:#ffffff;stroke-width:3;stroke-miterlimit:4;stroke-dasharray:none;stroke-opacity:1"
         id="path6957" />
      <path
         d="m 424.18429,766.55729 c 2.976,2.592 3.84,4.896 3.84,7.584 0,3.84 -2.88,5.856 -7.872,5.856 -3.744,0 -6.72,-0.672 -9.504,-2.304 -1.056,1.632 -1.44,3.264 -1.44,4.512 0,3.168 4.896,4.8 11.712,4.8 9.792,0 15.936,-4.8 15.936,-13.344 0,-4.8 -1.536,-7.968 -5.76,-12 l -8.928,-7.2 c -3.264,-2.688 -3.84,-4.224 -3.84,-5.952 0,-2.976 2.976,-4.704 7.584,-4.704 3.648,0 6.528,0.768 9.504,2.592 0.96,-1.152 1.632,-2.784 1.632,-3.936 0,-1.92 -2.208,-5.376 -12,-5.376 -10.752,0 -15.744,4.608 -15.744,11.328 0,3.168 1.152,6.624 5.568,10.176 z"
         style="font-size:96px;stroke:#ffffff;stroke-width:3;stroke-miterlimit:4;stroke-dasharray:none;stroke-opacity:1"
         id="path6959" />
      <path
         d="m 446.33179,718.84529 c -2.016,0 -2.592,0.672 -2.592,1.824 v 65.376 h 12 c 11.808,0 18.72,-8.832 18.72,-37.056 0,-23.328 -6.24,-30.144 -18.72,-30.144 z m 5.184,59.808 v -52.704 h 4.416 c 6.528,0 9.792,4.512 9.792,22.272 0,26.688 -4.8,30.432 -9.792,30.432 z"
         style="font-size:96px;stroke:#ffffff;stroke-width:3;stroke-miterlimit:4;stroke-dasharray:none;stroke-opacity:1"
         id="path6961" />
      <path
         d="m 507.26029,748.79729 c 0,-8.64 -3.648,-11.712 -11.808,-11.712 -7.296,0 -13.056,1.536 -14.688,2.592 -0.768,0.48 -1.056,1.632 -1.056,2.592 0,1.152 0.192,2.88 1.056,4.512 2.784,-1.152 7.872,-2.208 12.768,-2.208 3.84,0 5.952,1.152 5.952,5.76 v 7.584 c -1.92,-0.96 -4.896,-1.248 -7.008,-1.248 -6.528,0 -12.864,2.4 -12.864,15.744 0,12.96 6.432,14.592 13.248,14.592 6.528,0 11.136,-1.632 13.824,-3.264 0.48,-7.296 0.576,-18.816 0.576,-29.856 z m -7.776,14.592 c 0,5.184 0,12.288 -0.288,15.552 -0.864,0.768 -2.976,1.536 -5.088,1.536 -3.84,0 -6.432,-1.152 -6.432,-8.256 0,-8.448 3.36,-9.792 7.296,-9.792 1.344,0 3.264,0.288 4.512,0.96 z"
         style="font-size:96px;stroke:#ffffff;stroke-width:3;stroke-miterlimit:4;stroke-dasharray:none;stroke-opacity:1"
         id="path6963" />
      <path
         d="m 524.02729,787.58129 c -1.44,7.968 -3.936,10.368 -7.008,10.368 -2.208,0 -4.8,-0.576 -6.048,-1.44 -0.768,1.056 -1.152,2.88 -1.152,4.32 0,2.208 2.016,3.744 7.776,3.744 7.008,0 10.56,-3.744 13.44,-15.936 l 11.808,-50.592 c -7.872,0 -7.968,0 -8.352,2.208 l -4.32,20.736 c -1.344,7.776 -2.304,17.088 -2.304,17.088 0,0 -1.056,-9.408 -2.592,-16.992 l -5.28,-23.04 c -6.336,0 -7.68,0 -7.68,1.056 0,0.288 0.096,0.672 0.192,1.056 z"
         style="font-size:96px;stroke:#ffffff;stroke-width:3;stroke-miterlimit:4;stroke-dasharray:none;stroke-opacity:1"
         id="path6965" />
      <path
         d="m 562.37179,766.55729 c 2.976,2.592 3.84,4.896 3.84,7.584 0,3.84 -2.88,5.856 -7.872,5.856 -3.744,0 -6.72,-0.672 -9.504,-2.304 -1.056,1.632 -1.44,3.264 -1.44,4.512 0,3.168 4.896,4.8 11.712,4.8 9.792,0 15.936,-4.8 15.936,-13.344 0,-4.8 -1.536,-7.968 -5.76,-12 l -8.928,-7.2 c -3.264,-2.688 -3.84,-4.224 -3.84,-5.952 0,-2.976 2.976,-4.704 7.584,-4.704 3.648,0 6.528,0.768 9.504,2.592 0.96,-1.152 1.632,-2.784 1.632,-3.936 0,-1.92 -2.208,-5.376 -12,-5.376 -10.752,0 -15.744,4.608 -15.744,11.328 0,3.168 1.152,6.624 5.568,10.176 z"
         style="font-size:96px;stroke:#ffffff;stroke-width:3;stroke-miterlimit:4;stroke-dasharray:none;stroke-opacity:1"
         id="path6967" />
      <path
         d="m 605.08279,718.84529 c -7.968,0 -7.968,0 -7.968,1.632 v 45.888 c 0,11.136 1.824,20.64 17.28,20.64 7.488,0 13.92,-1.92 16.32,-3.456 v -64.704 c -7.776,0 -7.872,0 -7.872,1.632 v 57.696 c -1.632,0.864 -5.088,1.632 -8.448,1.632 -8.16,0 -9.312,-5.376 -9.312,-13.152 z"
         style="font-size:96px;stroke:#ffffff;stroke-width:3;stroke-miterlimit:4;stroke-dasharray:none;stroke-opacity:1"
         id="path6969" />
      <path
         d="m 639.21079,786.04529 c 7.584,0 7.776,0 7.776,-1.536 v -38.976 c 2.016,-1.152 5.088,-1.728 7.2,-1.728 4.8,0 5.76,2.304 5.76,8.448 v 33.792 c 7.776,0 7.968,0 7.968,-1.536 v -34.56 c 0,-9.312 -3.36,-12.864 -13.44,-12.864 -5.088,0 -11.52,1.632 -15.264,3.264 z"
         style="font-size:96px;stroke:#ffffff;stroke-width:3;stroke-miterlimit:4;stroke-dasharray:none;stroke-opacity:1"
         id="path6971" />
      <path
         d="m 678.48979,725.56529 c 0,4.32 1.536,5.76 3.936,5.76 2.976,0 4.416,-2.304 4.416,-6.336 0,-3.84 -0.96,-5.376 -3.936,-5.376 -2.976,0 -4.416,2.4 -4.416,5.952 z m 8.064,12.48 c -6.24,0 -7.776,0 -7.776,3.552 v 44.448 c 7.776,0 7.776,0 7.776,-1.536 z"
         style="font-size:96px;stroke:#ffffff;stroke-width:3;stroke-miterlimit:4;stroke-dasharray:none;stroke-opacity:1"
         id="path6973" />
      <path
         d="m 719.36479,741.40529 c 0,-2.496 -3.552,-4.32 -8.064,-4.32 -7.872,0 -17.184,2.976 -17.184,26.016 0,20.256 5.088,23.904 14.304,23.904 6.336,0 10.752,-2.304 10.752,-4.896 0,-1.248 -0.288,-2.496 -0.768,-4.224 -1.632,1.152 -4.512,2.208 -7.68,2.208 -5.856,0 -8.64,-3.36 -8.64,-16.896 0,-17.184 5.184,-19.296 9.6,-19.296 2.688,0 5.28,0.96 6.816,1.824 0.672,-1.632 0.864,-3.264 0.864,-4.32 z"
         style="font-size:96px;stroke:#ffffff;stroke-width:3;stroke-miterlimit:4;stroke-dasharray:none;stroke-opacity:1"
         id="path6975" />
      <path
         d="m 722.42029,762.04529 c 0,21.6 5.28,24.96 15.072,24.96 10.272,0 15.84,-7.392 15.84,-25.152 0,-19.584 -4.896,-24.768 -14.88,-24.768 -10.08,0 -16.032,7.392 -16.032,24.96 z m 8.448,0.192 c 0,-14.976 2.976,-18.624 7.296,-18.624 4.512,0 6.72,2.88 6.72,18.24 0,14.976 -2.976,18.624 -7.2,18.624 -4.416,0 -6.816,-2.4 -6.816,-18.24 z"
         style="font-size:96px;stroke:#ffffff;stroke-width:3;stroke-miterlimit:4;stroke-dasharray:none;stroke-opacity:1"
         id="path6977" />
      <path
         d="m 760.33579,786.04529 c 7.776,0 7.872,0 7.872,-1.536 v -37.824 c 1.92,-1.536 4.224,-2.208 6.432,-2.208 1.632,0 3.264,0.384 4.608,1.152 0.672,-1.632 0.864,-3.552 0.864,-4.512 0,-2.592 -1.824,-4.032 -6.72,-4.032 -4.704,0 -9.216,1.632 -13.056,4.32 z"
         style="font-size:96px;stroke:#ffffff;stroke-width:3;stroke-miterlimit:4;stroke-dasharray:none;stroke-opacity:1"
         id="path6979" />
      <path
         d="m 785.74429,801.59729 c 0,2.688 1.056,3.36 3.744,3.36 1.248,0 2.784,-0.192 4.032,-0.576 v -20.064 c 1.44,1.44 4.032,2.688 7.584,2.688 6.528,0 14.304,-4.128 14.304,-29.952 0,-15.744 -6.144,-19.968 -15.648,-19.968 -5.184,0 -10.08,1.344 -14.016,3.84 z m 7.776,-55.968 c 1.632,-1.152 3.552,-1.824 5.856,-1.824 4.992,0 7.488,2.592 7.488,14.112 0,20.064 -5.088,22.176 -8.16,22.176 -1.92,0 -3.84,-0.96 -5.184,-3.168 z"
         style="font-size:96px;stroke:#ffffff;stroke-width:3;stroke-miterlimit:4;stroke-dasharray:none;stroke-opacity:1"
         id="path6981" />
      <path
         d="m 821.04529,762.04529 c 0,21.6 5.28,24.96 15.072,24.96 10.272,0 15.84,-7.392 15.84,-25.152 0,-19.584 -4.896,-24.768 -14.88,-24.768 -10.08,0 -16.032,7.392 -16.032,24.96 z m 8.448,0.192 c 0,-14.976 2.976,-18.624 7.296,-18.624 4.512,0 6.72,2.88 6.72,18.24 0,14.976 -2.976,18.624 -7.2,18.624 -4.416,0 -6.816,-2.4 -6.816,-18.24 z"
         style="font-size:96px;stroke:#ffffff;stroke-width:3;stroke-miterlimit:4;stroke-dasharray:none;stroke-opacity:1"
         id="path6983" />
      <path
         d="m 866.83279,715.48529 c -6.24,0 -7.776,0 -7.776,3.552 v 67.008 c 7.68,0 7.776,0 7.776,-1.536 z"
         style="font-size:96px;stroke:#ffffff;stroke-width:3;stroke-miterlimit:4;stroke-dasharray:none;stroke-opacity:1"
         id="path6985" />
      <path
         d="m 875.55229,725.56529 c 0,4.32 1.536,5.76 3.936,5.76 2.976,0 4.416,-2.304 4.416,-6.336 0,-3.84 -0.96,-5.376 -3.936,-5.376 -2.976,0 -4.416,2.4 -4.416,5.952 z m 8.064,12.48 c -6.24,0 -7.776,0 -7.776,3.552 v 44.448 c 7.776,0 7.776,0 7.776,-1.536 z"
         style="font-size:96px;stroke:#ffffff;stroke-width:3;stroke-miterlimit:4;stroke-dasharray:none;stroke-opacity:1"
         id="path6987" />
      <path
         d="m 906.05929,766.55729 c 2.976,2.592 3.84,4.896 3.84,7.584 0,3.84 -2.88,5.856 -7.872,5.856 -3.744,0 -6.72,-0.672 -9.504,-2.304 -1.056,1.632 -1.44,3.264 -1.44,4.512 0,3.168 4.896,4.8 11.712,4.8 9.792,0 15.936,-4.8 15.936,-13.344 0,-4.8 -1.536,-7.968 -5.76,-12 l -8.928,-7.2 c -3.264,-2.688 -3.84,-4.224 -3.84,-5.952 0,-2.976 2.976,-4.704 7.584,-4.704 3.648,0 6.528,0.768 9.504,2.592 0.96,-1.152 1.632,-2.784 1.632,-3.936 0,-1.92 -2.208,-5.376 -12,-5.376 -10.752,0 -15.744,4.608 -15.744,11.328 0,3.168 1.152,6.624 5.568,10.176 z"
         style="font-size:96px;stroke:#ffffff;stroke-width:3;stroke-miterlimit:4;stroke-dasharray:none;stroke-opacity:1"
         id="path6989" />
    </g>
  </g>
  <g
     inkscape:groupmode="layer"
     id="layer5"
     inkscape:label="Layer 2"
     style="display:inline"
     sodipodi:insensitive="true">
    <g
       id="Gears"
       style="fill:url(#pattern6808);fill-opacity:1">
      <path
         d="m 632.106,617.042 v 10e-4 c 0.306,0.095 0.169,0.057 0.409,0.119 z m -10.491,-5.843 0.204,0.174 0.001,-0.001 c -0.2,-0.17 -0.127,-0.106 -0.223,-0.19 z m -0.978,-0.922 0.492,0.464 c -0.086,-0.081 -0.165,-0.157 -0.251,-0.238 -0.065,-0.061 -0.037,-0.032 -0.065,-0.061 l -0.441,-0.441 z m 13.168,7.209 -0.448,-0.107 0.306,0.078 z m -14.094,-8.172 0.384,0.399 c -0.658,-0.725 -0.401,-0.449 -0.763,-0.835 z m 15.56,8.458 -0.607,-0.109 0.307,0.063 z m -7.928,-4.255 c -12.447,-6.861 -16.976,-22.514 -10.115,-34.961 6.862,-12.447 22.514,-16.976 34.962,-10.115 12.447,6.861 16.975,22.514 10.114,34.961 -6.861,12.448 -22.514,16.976 -34.961,10.115 z m 8.853,4.388 -0.366,-0.047 c 0.622,0.096 0.302,0.054 0.959,0.122 -0.509,-0.065 -0.319,-0.042 -0.571,-0.072 z m -17.357,-9.594 0.147,0.17 -0.004,-0.005 c -0.159,-0.184 -0.097,-0.109 -0.188,-0.222 z m -0.819,-1.039 0.282,0.358 c -0.154,-0.21 -0.053,-0.075 -0.312,-0.4 z m 19.674,10.798 -0.135,-0.01 0.042,0.005 z m -20.438,-11.873 0.704,0.99 c -0.104,-0.184 -0.244,-0.341 -0.36,-0.517 l -0.502,-0.721 z m 23.026,11.94 -0.202,0.007 c 0.21,0.002 0.101,0.003 0.328,-0.006 z m -23.734,-13.046 0.052,0.081 c -0.075,-0.119 -0.035,-0.054 -0.118,-0.196 z m 13.984,2.641 c 9.252,5.099 20.887,1.733 25.987,-7.519 5.1,-9.252 1.734,-20.886 -7.519,-25.986 -9.252,-5.1 -20.886,-1.734 -25.986,7.518 -5.1,9.252 -1.734,20.887 7.518,25.987 z m -17.876,-14.977 0.005,0.063 h 0.001 l -0.006,-0.064 c -0.054,-1.295 -0.07,-1.159 -0.049,-2.351 10e-4,-0.098 0.013,-0.195 0.017,-0.293 0.004,-0.11 0,-0.22 0.007,-0.33 0.026,-0.456 0.065,-0.912 0.092,-1.369 -0.129,1.006 -0.116,2.023 -0.123,3.034 z m 43.572,19.836 -1.42,1.01 c 0.545,-0.349 0.119,-0.072 1.25,-0.876 z m -43.41,-25.092 -0.072,0.685 0.227,-1.697 z m 0.47,-2.622 -0.266,1.296 0.372,-1.708 z m 0.335,-1.302 -0.081,0.314 0.194,-0.673 h -10e-4 z m 52.315,14.694 -0.131,0.441 0.101,-0.325 z m -45.47,-26.418 -0.043,0.046 c 0.097,-0.092 0.062,-0.055 0.11,-0.107 l 0.344,-0.334 z m 46.288,22.203 -0.048,0.446 0.006,-0.04 z m -43.282,-24.82 -0.218,0.172 c 0.486,-0.374 0.996,-0.709 1.494,-1.064 l -0.202,0.129 z m 43.384,23.774 -0.015,0.216 0.008,-0.08 z m 0.054,-2.852 0.018,0.489 c 0.002,-0.306 0.003,-0.087 -0.021,-0.656 z m -42.266,23.387 c 1.622,1.083 3.355,2.001 5.17,2.716 0.745,0.315 1.519,0.544 2.29,0.783 l 0.013,-0.022 c 3.082,0.879 6.27,1.35 9.479,1.041 l 0.007,0.023 c -0.081,0.007 -0.042,0.004 -0.116,0.008 l 0.052,-0.002 c 3.052,-0.178 5.999,-0.979 8.829,-2.1 l 0.025,-0.01 c 0.787,-0.319 1.534,-0.715 2.289,-1.102 l -0.007,-0.023 c 2.847,-1.554 5.449,-3.512 7.529,-6.024 l 0.023,0.013 c 0.475,-0.532 0.899,-1.1 1.339,-1.662 l 0.059,-0.077 c 1.874,-2.507 3.196,-5.353 4.157,-8.321 l 0.012,-0.041 -0.022,-0.012 c 0.891,-3.115 1.391,-6.337 1.073,-9.583 l 0.023,-0.007 c -0.209,-3.47 -1.199,-6.789 -2.624,-9.94 l -0.046,-0.093 -0.535,-1.046 -0.024,0.007 c -1.554,-2.847 -3.512,-5.45 -6.023,-7.529 l 0.012,-0.023 c -1.452,-1.285 -3.066,-2.371 -4.751,-3.327 -1.694,-0.945 -3.5,-1.665 -5.349,-2.241 l -0.013,0.023 c -3.08,-0.883 -6.265,-1.383 -9.476,-1.083 l -0.005,-0.021 -0.045,0.002 c -4.116,0.29 -7.539,1.367 -11.199,3.24 l -0.045,0.025 0.006,0.021 c -2.811,1.539 -5.367,3.497 -7.428,5.972 l -0.022,-0.012 0.279,-0.325 c -0.121,0.13 -0.024,0.025 -0.279,0.325 v 0 c -2.597,2.915 -4.372,6.405 -5.567,10.1 l 0.022,0.013 c -0.892,3.114 -1.392,6.336 -1.074,9.582 l -0.022,0.007 0.005,0.067 c 0.186,2.992 0.974,5.885 2.073,8.661 0.027,0.064 0.015,0.035 0.036,0.086 0.315,0.779 0.709,1.519 1.091,2.265 v 0 c 0.049,0.096 0.018,0.038 0.094,0.171 -0.075,-0.133 -0.045,-0.075 -0.094,-0.171 l 0.023,-0.007 c 0.512,0.962 1.111,1.872 1.71,2.78 0.426,0.629 0.91,1.213 1.382,1.806 0.885,1.022 1.816,2.004 2.851,2.875 l -0.013,0.021 c 1.475,1.241 0.583,0.524 2.719,2.097 z m 38.323,-36.673 0.629,1.07 c -0.472,-0.871 -0.994,-1.715 -1.568,-2.522 z m -23.669,-13.056 -1.251,0.053 c 0.66,-0.004 0.096,0.007 0.593,-0.017 0.061,-0.003 0.122,-0.003 0.183,-0.005 0.176,-0.01 0.352,-0.02 0.527,-0.03 z m 2.63,0.081 -0.739,-0.041 1.242,0.093 z m 19.518,10.712 0.143,0.193 -0.08,-0.112 z m -18.202,-10.575 -0.252,-0.027 1.517,0.221 z m 2.623,0.47 -0.737,-0.151 1.152,0.258 z m 13.067,7.227 0.028,0.025 c -0.077,-0.079 -0.045,-0.049 -0.092,-0.093 z m -11.765,-6.892 -0.242,-0.062 0.571,0.165 z m 10.567,5.772 0.2,0.172 -0.022,-0.021 z m -33.919,55.275 -2.434,-1.348 -2.617,-1.435 c 0.193,-2.236 -0.046,-4.483 0.353,-6.702 -3.708,-2.977 -6.492,-6.728 -8.628,-10.947 l -0.161,0.046 -6.524,-1.114 c -0.523,-1.85 -1.064,-3.694 -1.603,-5.539 l 4.922,-4.426 0.263,-0.076 c -0.498,-4.822 0.153,-9.116 1.593,-13.712 l 0.011,-0.029 -0.308,-0.169 -3.825,-5.401 c 0.938,-1.678 1.86,-3.365 2.783,-5.05 l 6.61,0.351 0.307,0.169 0.02,-0.026 c 2.899,-3.613 6.558,-6.505 10.665,-8.627 0.086,-2.311 0.695,-4.564 1.116,-6.828 1.849,-0.523 3.694,-1.064 5.539,-1.603 1.283,1.88 3.396,3.088 4.539,5.076 4.876,-0.561 9.168,0.024 13.829,1.467 l 0.017,-0.024 c 0.227,-0.246 0.297,-0.345 0.546,-0.542 0.652,-0.516 1.366,-0.929 2.055,-1.389 1.611,-1.075 1.238,-0.827 2.827,-1.932 3.422,1.896 1.739,0.968 5.05,2.784 -0.02,0.398 -0.046,0.796 -0.06,1.194 -0.049,1.448 -0.058,2.263 -0.085,3.585 -0.014,0.636 -0.013,1.296 -0.232,1.902 3.719,2.983 6.511,6.738 8.653,10.968 l 0.161,-0.047 6.524,1.114 c 0.523,1.85 1.064,3.695 1.602,5.54 l -4.921,4.425 -0.263,0.077 c 0.498,4.822 -0.153,9.116 -1.593,13.711 l -0.011,0.031 0.306,0.168 3.826,5.402 c -0.938,1.677 -1.86,3.364 -2.784,5.05 l -6.609,-0.351 -0.307,-0.169 -0.019,0.024 c -2.916,3.643 -6.61,6.532 -10.743,8.668 l 0.076,0.263 -1.114,6.525 c -1.85,0.523 -3.694,1.064 -5.539,1.602 l -4.426,-4.921 -0.046,-0.161 c -4.878,0.571 -9.218,-0.012 -13.882,-1.456 -1.591,1.402 -3.415,2.512 -5.174,3.686 z"
         id="path3781"
         style="fill:url(#pattern6808);fill-opacity:1"
         inkscape:connector-curvature="0" />
      <path
         d="m 577.958,546.227 c 13.932,0 25.226,-11.294 25.226,-25.226 0,-13.932 -11.294,-25.226 -25.226,-25.226 -13.931,0 -25.225,11.294 -25.225,25.226 0,13.932 11.294,25.226 25.225,25.226 z m -1.315,26.775 -11.257,-0.709 -5.61,-9.716 -10.837,2.903 c -1.062,-0.936 -2.127,-1.869 -3.194,-2.799 -1.898,-1.652 -3.896,-3.233 -5.648,-5.044 -1.198,-1.239 -2.302,-2.569 -3.434,-3.867 -1.374,-1.577 -2.757,-3.146 -4.145,-4.711 l 2.904,-10.837 -9.716,-5.609 c -0.124,-4.059 -0.79,-8.109 -0.697,-12.174 0.036,-1.597 0.188,-3.195 0.297,-4.788 0.143,-2.086 0.275,-4.174 0.4,-6.262 l 9.716,-5.609 -2.904,-10.837 c 0.936,-1.062 1.869,-2.127 2.799,-3.195 1.653,-1.898 3.234,-3.895 5.045,-5.647 1.238,-1.198 2.569,-2.302 3.867,-3.434 1.576,-1.375 3.146,-2.757 4.71,-4.145 l 10.837,2.903 5.61,-9.716 c 15.245,-0.96 7.504,-0.931 23.223,0 l 5.61,9.716 10.837,-2.903 c 2.923,2.807 6.263,5.187 9.093,8.093 1.167,1.198 2.237,2.492 3.332,3.755 1.325,1.53 2.658,3.054 3.996,4.573 l -2.904,10.837 9.716,5.609 c 0.107,4.176 0.783,8.344 0.7,12.524 -0.031,1.548 -0.182,3.097 -0.292,4.64 -0.144,2.02 -0.28,4.039 -0.408,6.06 l -9.716,5.609 2.904,10.837 c -2.808,2.923 -5.188,6.263 -8.094,9.094 -1.197,1.166 -2.492,2.237 -3.754,3.331 -1.53,1.326 -3.054,2.659 -4.573,3.996 l -10.837,-2.903 -5.61,9.716 z"
         id="path3783"
         style="fill:url(#pattern6808);fill-opacity:1"
         inkscape:connector-curvature="0" />
      <path
         d="m 739.703,571.289 4.79,6.398 2.803,-7.485 6.398,-4.79 -7.485,-2.803 -4.79,-6.399 -2.803,7.486 -6.399,4.79 z m 38.45,-27.606 -1.137,7.911 7.275,-3.31 7.912,1.137 -3.311,-7.275 1.137,-7.912 -7.275,3.311 -7.911,-1.137 z m -86.246,12.344 -1.137,7.912 7.274,-3.311 7.912,1.137 -3.311,-7.275 1.137,-7.911 -7.275,3.311 -7.911,-1.138 z m 47.982,-10.509 c 24.186,-3.461 40.986,-25.875 37.525,-50.061 -3.462,-24.186 -25.875,-40.987 -50.062,-37.525 -24.186,3.462 -40.986,25.875 -37.525,50.061 3.462,24.187 25.875,40.987 50.062,37.525 z m -0.33,-2.304 c -22.914,3.279 -44.147,-12.637 -47.427,-35.551 -3.279,-22.913 12.637,-44.146 35.55,-47.426 22.914,-3.28 44.147,12.637 47.427,35.55 3.279,22.913 -12.637,44.147 -35.55,47.427 z m -1.525,-10.651 c 17.032,-2.437 28.862,-18.22 26.424,-35.252 -2.437,-17.031 -18.22,-28.861 -35.251,-26.424 -17.032,2.438 -28.862,18.221 -26.425,35.252 2.438,17.032 18.221,28.862 35.252,26.424 z m -64.414,-18.375 4.79,6.398 2.803,-7.485 6.398,-4.79 -7.485,-2.803 -4.79,-6.399 -2.803,7.485 -6.399,4.791 z m 113.495,-16.245 4.79,6.398 2.803,-7.485 6.399,-4.79 -7.486,-2.803 -4.79,-6.398 -2.803,7.485 -6.398,4.79 z m -107.553,-28.162 -1.137,7.911 7.275,-3.311 7.912,1.138 -3.311,-7.275 1.137,-7.912 -7.275,3.311 -7.912,-1.137 z m 86.247,-12.345 -1.137,7.912 7.275,-3.311 7.911,1.137 -3.311,-7.275 1.138,-7.911 -7.275,3.31 -7.912,-1.137 z m -43.564,-8.118 4.79,6.398 2.803,-7.485 6.399,-4.79 -7.486,-2.803 -4.79,-6.399 -2.803,7.485 -6.398,4.791 z m 30.766,140.203 -6.455,0.908 -6.92,1.006 -8.665,-12.86 -0.024,-0.17 c -11.093,-0.258 -21.743,-3.57 -31.684,-8.318 l -0.235,0.313 -13.777,7.117 c -3.589,-2.72 -7.201,-5.411 -10.811,-8.103 1.218,-5.259 1.544,-10.733 3.219,-15.883 -7.454,-7.851 -12.466,-17.494 -16.164,-27.58 -5.349,-1.059 -10.491,-3.142 -15.67,-4.835 -0.614,-4.462 -1.265,-8.918 -1.914,-13.375 4.639,-2.884 8.77,-6.604 13.684,-9.037 0.282,-10.792 3.237,-21.256 7.773,-30.995 -2.937,-4.524 -5.102,-9.546 -7.539,-14.353 2.72,-3.59 5.411,-7.201 8.103,-10.811 5.159,1.226 10.551,1.509 15.618,3.125 7.911,-7.758 17.69,-12.976 27.995,-16.796 l -0.024,-0.17 4.709,-14.774 c 9.076,-1.279 4.618,-0.64 13.375,-1.914 l 8.665,12.86 -0.942,0.135 c 0.314,-0.041 0.628,-0.09 0.942,-0.135 l 0.024,0.169 c 11.039,0.263 21.668,3.538 31.567,8.261 4.55,-2.749 9.381,-4.992 14.129,-7.373 3.589,2.721 7.201,5.411 10.811,8.104 l -2.967,15.221 -0.385,0.513 c 7.516,7.887 12.575,17.579 16.297,27.728 5.349,1.06 10.491,3.143 15.67,4.836 0.613,4.462 1.266,8.918 1.914,13.374 l -12.86,8.665 -0.813,0.117 -0.001,0.073 c -0.268,10.854 -3.222,21.382 -7.783,31.178 2.937,4.524 5.102,9.545 7.539,14.353 -2.721,3.589 -5.41,7.201 -8.103,10.811 -5.159,-1.226 -10.551,-1.509 -15.618,-3.125 -7.911,7.758 -17.69,12.975 -27.995,16.796 l 0.024,0.169 z"
         id="path3785"
         style="fill:url(#pattern6808);fill-opacity:1"
         inkscape:connector-curvature="0" />
      <path
         d="m 711.129,608.619 c 2.313,-5.569 -0.327,-11.959 -5.896,-14.272 -5.57,-2.313 -11.96,0.327 -14.273,5.896 -2.313,5.57 0.327,11.96 5.896,14.273 5.57,2.313 11.96,-0.327 14.273,-5.897 z m -10.675,19.896 c -0.35,-0.018 -0.698,-0.045 -1.047,-0.071 l -0.952,-4.843 c -1.103,-0.106 -2.175,-0.399 -3.237,-0.701 l -2.957,3.967 c -0.322,-0.136 -0.641,-0.281 -0.96,-0.425 l 0.76,-4.859 c -1.007,-0.495 -1.913,-1.162 -2.809,-1.83 l -4.109,2.748 c -0.267,-0.226 -0.528,-0.459 -0.79,-0.691 l 2.405,-4.448 c -0.706,-0.766 -1.274,-1.644 -1.841,-2.515 l -0.036,-0.063 -4.963,1.217 c -0.174,-0.303 -0.339,-0.612 -0.506,-0.92 l 3.927,-3.485 -0.016,-0.039 c -0.356,-0.933 -0.605,-1.899 -0.816,-2.873 l -5.215,-0.569 c -0.06,-0.344 -0.11,-0.691 -0.161,-1.037 l 4.986,-1.974 c -0.029,-0.987 0.059,-1.972 0.181,-2.95 l -4.871,-2.399 c 0.063,-0.344 0.134,-0.687 0.205,-1.03 l 5.501,-0.153 c 0.283,-0.917 0.696,-1.787 1.104,-2.654 l -3.782,-3.946 c 0.176,-0.302 0.361,-0.6 0.544,-0.898 l 5.191,1.727 c 0.572,-0.794 1.261,-1.492 1.946,-2.187 l -2.166,-4.916 c 0.269,-0.224 0.544,-0.44 0.819,-0.657 l 4.177,3.311 c 0.855,-0.57 1.758,-1.063 2.697,-1.48 l -0.342,-5.174 c 0.329,-0.118 0.662,-0.227 0.994,-0.338 l 2.686,4.367 0.011,-0.003 c 1.025,-0.264 2.079,-0.384 3.131,-0.474 l 1.404,-4.826 c 0.35,10e-4 0.7,0.012 1.05,0.022 l 1.004,4.894 c 1.087,0.141 2.179,0.338 3.219,0.692 l 2.917,-3.982 c 0.649,0.247 0.323,0.12 0.978,0.38 l -0.727,4.924 c 0.969,0.489 1.864,1.105 2.736,1.749 l 4.169,-2.739 c 0.256,0.238 0.506,0.483 0.757,0.728 l -2.415,4.377 c 0.74,0.791 1.334,1.7 1.925,2.604 l 4.953,-1.171 c 0.159,0.312 0.31,0.628 0.462,0.943 l -3.871,3.379 c 0.382,0.972 0.665,1.977 0.874,2.999 l 5.264,0.618 c 0.044,0.348 0.077,0.696 0.112,1.044 l -4.978,1.923 c 0.029,0.991 -0.056,1.978 -0.177,2.961 l 4.799,2.414 c -0.078,0.341 -0.165,0.68 -0.252,1.019 l -5.362,0.105 -0.001,0.004 c -0.289,0.941 -0.713,1.833 -1.13,2.723 l 3.704,3.931 c -0.191,0.293 -0.388,0.582 -0.586,0.871 l -5.044,-1.725 c -0.582,0.814 -1.288,1.527 -1.989,2.238 l 2.107,4.892 c -0.279,0.211 -0.564,0.415 -0.848,0.619 l -4.06,-3.274 c -0.855,0.571 -1.757,1.065 -2.695,1.483 l 0.3,5.194 c -0.335,0.103 -0.672,0.197 -1.009,0.292 l -2.621,-4.342 -0.031,0.008 c -1.042,0.27 -2.112,0.387 -3.182,0.478 z"
         id="path3787"
         style="fill:url(#pattern6808);fill-opacity:1"
         inkscape:connector-curvature="0" />
      <path
         d="m 842.104,443.012 c 11.247,-0.508 19.954,-9.999 19.448,-21.199 -0.506,-11.2 -10.034,-19.867 -21.281,-19.359 -11.247,0.509 -19.954,10 -19.448,21.2 0.506,11.199 10.034,19.866 21.281,19.358 z m 1.099,24.579 c -4.181,0.189 -7.715,-2.835 -7.892,-6.755 -0.083,-1.997 -0.398,-4.108 -1.624,-5.747 -0.023,-0.03 -0.325,-0.374 -0.413,-0.429 -0.465,-0.292 -1.004,-0.319 -1.521,-0.458 -2.144,0.509 -3.548,2.238 -4.828,3.909 -0.061,0.124 -0.142,0.237 -0.215,0.354 -2.161,3.275 -6.745,4.062 -10.239,1.757 l -0.019,-0.013 c -3.494,-2.305 -4.575,-6.829 -2.415,-10.104 0.945,-1.4 3.089,-5.319 1.574,-7.067 -0.789,-0.909 -2.282,-0.816 -3.354,-0.828 -1.168,0.074 -2.292,0.422 -3.404,0.762 -0.122,0.064 -0.253,0.107 -0.381,0.159 -3.673,1.379 -7.844,-0.679 -9.316,-4.597 l -0.008,-0.022 c -1.472,-3.918 0.313,-8.213 3.986,-9.593 1.822,-0.685 3.716,-1.581 4.88,-3.21 0.282,-0.396 0.636,-0.913 0.614,-1.425 -0.098,-2.198 -4.157,-3.822 -5.897,-4.278 -3.783,-1.043 -5.947,-5.16 -4.835,-9.195 l 0.006,-0.022 c 1.113,-4.036 5.081,-6.462 8.864,-5.419 1.622,0.465 6.411,1.381 7.328,-0.956 0.789,-2.012 -1.229,-5.034 -2.415,-6.492 -2.447,-3.067 -1.779,-7.67 1.493,-10.28 l 0.018,-0.015 c 3.272,-2.61 7.908,-2.24 10.356,0.827 1.368,1.707 3.087,3.503 5.358,3.811 0.49,-0.228 1.015,-0.383 1.512,-0.586 1.442,-1.758 1.562,-4.194 1.482,-6.363 -0.177,-3.92 3.069,-7.251 7.251,-7.44 l 0.022,-10e-4 c 4.182,-0.189 7.715,2.836 7.893,6.756 0.002,0.122 0.004,0.244 0.006,0.365 -0.001,0.014 -0.001,0.028 -0.002,0.041 0.247,1.943 0.459,4.267 1.933,5.736 0.259,0.258 1.306,0.406 1.71,0.52 2.217,-0.576 3.754,-2.45 4.955,-4.291 2.16,-3.275 6.744,-4.062 10.239,-1.757 l 0.018,0.013 c 3.495,2.305 4.575,6.828 2.415,10.104 -0.079,0.112 -0.152,0.229 -0.239,0.335 -0.999,1.633 -1.873,3.458 -1.806,5.416 0.012,0.358 -0.025,0.441 0.075,0.749 0.103,0.32 0.458,0.692 0.73,0.881 1.962,1.362 4.796,0.317 6.805,-0.407 3.673,-1.38 7.844,0.678 9.316,4.597 l 0.008,0.021 c 1.472,3.919 -0.313,8.214 -3.986,9.594 -1.801,0.709 -3.888,1.613 -4.965,3.335 -0.223,0.356 -0.57,0.841 -0.526,1.287 0.245,2.493 3.877,3.743 5.894,4.291 3.783,1.043 5.947,5.16 4.835,9.195 l -0.006,0.022 c -1.113,4.035 -5.081,6.461 -8.864,5.418 -0.136,-0.041 -0.273,-0.076 -0.406,-0.129 -1.12,-0.32 -2.289,-0.381 -3.446,-0.447 -1.15,0.06 -3.293,0.28 -3.593,1.757 -0.445,2.186 1.283,4.691 2.532,6.267 2.447,3.067 1.779,7.67 -1.493,10.281 l -0.018,0.014 c -3.272,2.611 -7.908,2.241 -10.355,-0.826 -0.082,-0.109 -0.17,-0.213 -0.243,-0.328 -1.207,-1.34 -3.121,-3.388 -5.112,-3.485 -0.492,0.228 -1.017,0.385 -1.516,0.588 -1.443,1.758 -1.563,4.194 -1.482,6.362 0.177,3.92 -3.069,7.251 -7.251,7.44 z"
         id="path3789"
         style="fill:url(#pattern6808);fill-opacity:1"
         inkscape:connector-curvature="0" />
      <path
         d="m 861.283,360.744 c -0.035,-0.703 -0.051,-1.408 -0.186,-2.1 1.103,-0.536 2.156,-1.158 3.162,-1.868 -0.148,-0.654 -0.36,-1.287 -0.604,-1.911 -1.246,-0.078 -2.531,-0.018 -3.741,0.13 -0.31,-0.629 -0.675,-1.237 -1.096,-1.799 -0.403,-0.578 -0.883,-1.095 -1.369,-1.604 0.556,-1.06 1.045,-2.186 1.459,-3.37 -0.523,-0.411 -1.048,-0.827 -1.611,-1.183 -1.079,0.708 -2.046,1.445 -2.953,2.301 -0.625,-0.328 -1.276,-0.594 -1.944,-0.818 -0.674,-0.196 -1.354,-0.392 -2.054,-0.474 -0.173,-1.203 -0.44,-2.417 -0.804,-3.584 -0.665,-0.045 -1.33,-0.065 -1.995,-0.012 -0.457,1.171 -0.803,2.374 -1.035,3.596 -0.7,0.082 -1.379,0.278 -2.054,0.474 -0.668,0.224 -1.319,0.49 -1.944,0.818 -0.854,-0.887 -1.756,-1.663 -2.755,-2.422 -0.583,0.328 -1.093,0.764 -1.631,1.157 0.333,1.231 0.772,2.419 1.281,3.518 -0.486,0.508 -0.965,1.025 -1.368,1.603 -0.421,0.562 -0.786,1.17 -1.096,1.799 -1.18,-0.201 -2.438,-0.333 -3.661,-0.347 -0.23,0.628 -0.48,1.25 -0.626,1.903 0.987,0.802 2.006,1.496 3.104,2.093 -0.135,0.692 -0.152,1.397 -0.186,2.1 0.034,0.702 0.051,1.407 0.186,2.1 -1.103,0.535 -2.156,1.157 -3.162,1.867 0.148,0.654 0.36,1.287 0.603,1.911 1.247,0.078 2.532,0.018 3.742,-0.13 0.31,0.629 0.675,1.237 1.096,1.799 0.403,0.578 0.882,1.095 1.368,1.604 -0.556,1.06 -1.044,2.186 -1.458,3.37 0.523,0.411 1.047,0.828 1.611,1.183 1.078,-0.708 2.046,-1.445 2.952,-2.3 0.625,0.327 1.276,0.593 1.944,0.817 0.675,0.196 1.354,0.392 2.054,0.474 0.173,1.203 0.44,2.417 0.805,3.584 0.665,0.045 1.329,0.065 1.994,0.012 0.458,-1.171 0.803,-2.374 1.035,-3.596 0.7,-0.082 1.38,-0.278 2.054,-0.474 0.668,-0.224 1.319,-0.49 1.944,-0.817 0.855,0.887 1.756,1.663 2.756,2.421 0.582,-0.328 1.092,-0.764 1.63,-1.157 -0.332,-1.231 -0.772,-2.419 -1.28,-3.517 0.485,-0.509 0.965,-1.026 1.368,-1.604 0.421,-0.562 0.786,-1.17 1.096,-1.799 1.179,0.201 2.437,0.333 3.66,0.347 0.231,-0.628 0.48,-1.249 0.627,-1.903 -0.987,-0.802 -2.007,-1.496 -3.104,-2.093 0.135,-0.692 0.151,-1.397 0.186,-2.099 z m -10.134,8.368 c -1.745,0.567 -3.695,0.567 -5.44,0 -1.731,-0.584 -3.331,-1.687 -4.393,-3.204 -1.107,-1.488 -1.665,-3.311 -1.69,-5.164 0.025,-1.854 0.583,-3.677 1.69,-5.165 1.062,-1.516 2.662,-2.62 4.393,-3.204 1.745,-0.567 3.695,-0.567 5.44,0 1.732,0.584 3.331,1.688 4.394,3.204 1.107,1.488 1.664,3.311 1.689,5.165 -0.025,1.853 -0.582,3.676 -1.689,5.164 -1.063,1.516 -2.662,2.62 -4.394,3.204"
         id="path3791"
         style="fill:url(#pattern6808);fill-opacity:1"
         inkscape:connector-curvature="0" />
      <path
         d="m 746.253,339.83 c 4.52,-2.044 8.436,-5.461 11.126,-9.641 2.726,-4.185 4.094,-9.1 4.165,-14.104 -0.071,-5.004 -1.438,-9.92 -4.165,-14.104 -2.69,-4.179 -6.605,-7.596 -11.126,-9.64 -4.487,-2.038 -9.628,-2.859 -14.561,-2.076 -4.922,0.655 -9.597,2.837 -13.361,6.094 -3.781,3.258 -6.562,7.618 -7.968,12.365 -1.398,4.752 -1.398,9.97 10e-4,14.723 1.405,4.747 4.187,9.107 7.968,12.364 3.765,3.258 8.438,5.44 13.361,6.096 4.932,0.782 10.073,-0.038 14.56,-2.077 z m -14.256,-0.055 c -4.514,-0.599 -8.795,-2.601 -12.254,-5.591 -3.472,-2.991 -6.022,-6.994 -7.312,-11.343 -1.283,-4.352 -1.283,-9.159 0,-13.511 1.289,-4.349 3.839,-8.352 7.311,-11.343 3.458,-2.99 7.74,-4.991 12.254,-5.59 4.532,-0.724 9.252,0.038 13.361,1.902 4.145,1.872 7.743,5.013 10.212,8.848 2.502,3.842 3.748,8.338 3.822,12.938 -0.074,4.599 -1.32,9.095 -3.822,12.938 -2.469,3.835 -6.068,6.976 -10.212,8.849 -4.109,1.864 -8.829,2.626 -13.36,1.903 z m 11.351,-6.297 c 3.301,-1.487 6.187,-4.009 8.159,-7.071 2.002,-3.073 2.975,-6.628 3.052,-10.322 -0.077,-3.695 -1.049,-7.249 -3.052,-10.322 -1.972,-3.062 -4.857,-5.583 -8.159,-7.07 -3.263,-1.477 -7.038,-2.107 -10.67,-1.513 -3.599,0.471 -6.999,2.067 -9.77,4.457 -2.782,2.394 -4.813,5.596 -5.841,9.052 -1.023,3.455 -1.022,7.338 0,10.792 1.028,3.457 3.059,6.659 5.841,9.053 2.772,2.391 6.173,3.986 9.771,4.458 3.632,0.593 7.406,-0.037 10.669,-1.514 z m -6.374,36.096 c -1.186,-2.648 -2.204,-5.391 -3.055,-8.177 -1.653,-0.079 -3.307,-0.13 -4.944,-0.434 -1.646,-0.22 -3.278,-0.511 -4.878,-0.972 -1.587,2.383 -3.365,4.801 -5.254,7.003 -3.843,-1.31 -7.6,-2.928 -11.042,-5.073 0.466,-2.924 1.04,-5.708 1.834,-8.511 -1.309,-1.012 -2.712,-1.915 -3.915,-3.057 -1.225,-1.115 -2.485,-2.195 -3.562,-3.458 -2.627,1.152 -5.388,2.193 -8.205,3.063 -2.502,-3.178 -4.79,-6.55 -6.539,-10.217 1.963,-2.212 3.984,-4.262 6.125,-6.179 -0.559,-1.561 -1.208,-3.099 -1.646,-4.699 -0.382,-1.613 -0.928,-3.199 -1.123,-4.848 -2.83,-0.457 -5.683,-1.085 -8.544,-1.882 -0.44,-4.022 -0.439,-8.072 0,-12.094 2.86,-0.797 5.714,-1.424 8.543,-1.882 0.196,-1.65 0.742,-3.234 1.123,-4.848 0.438,-1.601 1.086,-3.138 1.646,-4.699 -2.142,-1.917 -4.162,-3.968 -6.125,-6.178 1.749,-3.668 4.036,-7.041 6.538,-10.219 2.817,0.87 5.579,1.912 8.206,3.063 1.078,-1.263 2.338,-2.343 3.563,-3.459 1.202,-1.141 2.605,-2.044 3.915,-3.056 -0.794,-2.802 -1.369,-5.587 -1.834,-8.511 3.441,-2.146 7.199,-3.762 11.04,-5.072 1.89,2.201 3.667,4.62 5.255,7.002 1.6,-0.461 3.231,-0.752 4.877,-0.972 1.637,-0.303 3.292,-0.354 4.945,-0.434 0.85,-2.786 1.869,-5.529 3.055,-8.177 4.026,0.136 8.087,0.632 12.003,1.721 0.385,2.935 0.628,5.749 0.653,8.689 1.548,0.598 3.158,1.056 4.63,1.828 1.499,0.715 3.007,1.413 4.399,2.319 2.198,-1.84 4.567,-3.626 7.02,-5.238 3.296,2.347 6.435,4.94 9.132,7.959 -1.266,2.673 -2.612,5.192 -4.148,7.651 0.975,1.339 2.055,2.606 2.902,4.033 0.852,1.423 1.776,2.805 2.45,4.327 2.849,-0.366 5.773,-0.576 8.746,-0.623 1.506,3.769 2.736,7.67 3.385,11.678 -2.509,1.563 -5.059,2.961 -7.632,4.188 0.155,1.647 0.201,3.305 0.28,4.956 -0.079,1.652 -0.125,3.308 -0.28,4.954 2.573,1.228 5.123,2.626 7.632,4.19 -0.649,4.007 -1.879,7.908 -3.385,11.677 -2.973,-0.047 -5.897,-0.257 -8.746,-0.622 -0.674,1.522 -1.598,2.904 -2.45,4.327 -0.846,1.427 -1.927,2.694 -2.901,4.033 1.536,2.457 2.882,4.977 4.148,7.65 -2.697,3.019 -5.836,5.612 -9.132,7.958 -2.452,-1.61 -4.821,-3.397 -7.02,-5.236 -1.392,0.906 -2.9,1.605 -4.399,2.319 -1.472,0.773 -3.082,1.231 -4.629,1.827 -0.025,2.941 -0.268,5.755 -0.653,8.689 -3.916,1.091 -7.977,1.587 -12.004,1.723 z"
         id="path3793"
         style="fill:url(#pattern6808);fill-opacity:1"
         inkscape:connector-curvature="0" />
      <path
         d="m 756.382,410.682 -6.62,-0.016 -7.103,0.016 c -2.206,-4.661 -4.764,-9.149 -6.764,-13.904 l -11.073,10.758 c -4.29,-1.587 -8.593,-3.139 -12.895,-4.693 l -1.571,-15.392 -14.115,6.336 c -3.488,-2.959 -7.001,-5.889 -10.512,-8.821 l 3.788,-15.001 -15.431,1.126 c -2.265,-3.974 -4.564,-7.929 -6.861,-11.885 l 8.691,-12.8 -14.886,-4.219 c -0.77,-4.51 -1.578,-9.012 -2.383,-13.515 l 12.53,-9.046 c -4.306,-2.838 -8.382,-6.005 -12.53,-9.066 0.819,-4.501 1.6,-9.008 2.383,-13.515 l 14.868,-4.214 c -3.075,-4.14 -5.823,-8.511 -8.673,-12.806 2.308,-3.949 4.584,-7.917 6.861,-11.884 l 15.413,1.125 c -1.614,-4.894 -2.563,-9.994 -3.77,-15 3.52,-2.922 7.015,-5.872 10.512,-8.821 l 14.1,6.329 c 0.25,-5.144 1.024,-10.264 1.586,-15.385 4.307,-1.542 8.601,-3.119 12.895,-4.694 l 11.097,10.782 6.74,-13.927 c 9.31,0.02 4.735,0.021 13.723,0 l 6.741,13.927 11.096,-10.782 c 4.29,1.589 8.594,3.139 12.896,4.694 l 1.569,15.374 c 4.614,-2.305 9.392,-4.255 14.117,-6.318 3.488,2.959 7.001,5.889 10.512,8.821 l -3.784,14.983 c 5.123,-0.594 10.281,-0.787 15.426,-1.108 2.266,3.974 4.566,7.928 6.862,11.884 l -8.681,12.786 c 5.016,1.2 9.93,2.778 14.876,4.234 0.769,4.509 1.578,9.012 2.383,13.515 l -12.53,9.045 c 4.306,2.839 8.382,6.006 12.53,9.067 -0.82,4.5 -1.599,9.008 -2.383,13.515 l -14.868,4.214 c 3.075,4.14 5.822,8.51 8.673,12.805 -2.309,3.949 -4.583,7.918 -6.862,11.885 l -15.413,-1.125 c 1.615,4.894 2.563,9.993 3.771,15 -3.52,2.921 -7.015,5.873 -10.512,8.821 l -14.1,-6.329 c -0.25,5.144 -1.024,10.263 -1.586,15.385 -4.307,1.54 -8.601,3.119 -12.896,4.693 l -11.096,-10.781 z m -6.861,-21.377 c 38.488,0 69.69,-31.201 69.69,-69.689 0,-38.489 -31.202,-69.69 -69.69,-69.69 -38.489,0 -69.69,31.201 -69.69,69.69 0,38.488 31.201,69.689 69.69,69.689 z"
         id="path3795"
         style="fill:url(#pattern6808);fill-opacity:1"
         inkscape:connector-curvature="0" />
      <path
         d="m 729.661,225.137 c 1.383,0 2.505,-1.121 2.505,-2.505 0,-1.383 -1.122,-2.505 -2.505,-2.505 -1.384,0 -2.505,1.122 -2.505,2.505 0,1.384 1.121,2.505 2.505,2.505 z m 13.568,-5.608 c 0.979,-0.979 0.979,-2.565 0,-3.543 -0.978,-0.978 -2.564,-0.978 -3.542,0 -0.978,0.978 -0.978,2.564 0,3.543 0.978,0.978 2.564,0.978 3.542,0 z m -23.461,-0.027 c 0.979,-0.978 0.979,-2.564 0,-3.543 -0.978,-0.978 -2.564,-0.978 -3.542,0 -0.979,0.979 -0.979,2.565 0,3.543 0.978,0.978 2.564,0.978 3.542,0 z m 9.346,-2.151 c 6.281,0 11.372,-5.091 11.372,-11.372 0,-6.28 -5.091,-11.372 -11.372,-11.372 -6.28,0 -11.372,5.092 -11.372,11.372 0,6.281 5.092,11.372 11.372,11.372 z m 0.138,-0.973 c -5.756,0 -10.421,-4.666 -10.421,-10.421 0,-5.756 4.665,-10.421 10.421,-10.421 5.755,0 10.421,4.665 10.421,10.421 0,5.755 -4.666,10.421 -10.421,10.421 z m 0,-1.901 c 4.705,0 8.52,-3.815 8.52,-8.52 0,-4.706 -3.815,-8.52 -8.52,-8.52 -4.706,0 -8.52,3.814 -8.52,8.52 0,4.705 3.814,8.52 8.52,8.52 z m 17.209,-6.001 c 1.383,0 2.505,-1.121 2.505,-2.505 0,-1.383 -1.122,-2.505 -2.505,-2.505 -1.384,0 -2.505,1.122 -2.505,2.505 0,1.384 1.121,2.505 2.505,2.505 z m -33.342,-0.014 c 1.384,0 2.505,-1.122 2.505,-2.505 0,-1.384 -1.121,-2.505 -2.505,-2.505 -1.383,0 -2.505,1.121 -2.505,2.505 0,1.383 1.122,2.505 2.505,2.505 z m 6.545,-12.52 c 0.978,-0.978 0.978,-2.564 0,-3.542 -0.978,-0.979 -2.565,-0.979 -3.543,0 -0.978,0.978 -0.978,2.564 0,3.542 0.978,0.978 2.565,0.978 3.543,0 z m 23.691,-0.006 c 0.978,-0.978 0.978,-2.564 0,-3.542 -0.979,-0.979 -2.565,-0.979 -3.543,0 -0.978,0.978 -0.978,2.564 0,3.542 0.978,0.979 2.564,0.979 3.543,0 z m -13.68,-4.14 c 1.384,0 2.505,-1.122 2.505,-2.505 0,-1.384 -1.121,-2.505 -2.505,-2.505 -1.383,0 -2.505,1.121 -2.505,2.505 0,1.383 1.122,2.505 2.505,2.505 z m -2.115,38.328 c -0.857,-0.883 -1.356,-2.088 -1.901,-3.177 l -0.005,-0.009 c -0.924,-0.154 -1.818,-0.44 -2.711,-0.716 l -0.057,-0.02 -0.009,0.006 c -0.756,0.412 -2.305,1.68 -3.234,1.8 -0.619,-0.035 -1.485,-0.86 -1.951,-1.13 -0.466,-0.269 -1.512,-0.639 -1.926,-1.108 -0.289,-1.096 -0.114,-2.597 -0.051,-3.723 -0.728,-0.609 -1.368,-1.312 -2.007,-2.009 -1.634,0.09 -0.817,0.059 -2.453,0.094 -0.43,-0.025 -0.861,0.017 -1.267,-0.151 -0.518,-0.34 -0.855,-1.487 -1.125,-1.953 -0.269,-0.467 -0.99,-1.31 -1.113,-1.923 0.3,-1.097 1.176,-2.27 1.794,-3.217 l 0.017,-0.025 -0.014,-0.036 c -0.317,-0.883 -0.52,-1.801 -0.716,-2.717 -0.739,-0.452 -2.636,-1.167 -3.208,-1.916 -0.278,-0.554 0.003,-1.716 0.003,-2.255 0,-0.538 -0.202,-1.629 -0.003,-2.221 0.797,-0.795 2.214,-1.41 3.214,-1.914 0.153,-0.916 0.437,-1.802 0.71,-2.687 l 0.018,-0.05 -0.016,-0.023 c -0.412,-0.757 -1.68,-2.306 -1.8,-3.235 0.036,-0.618 0.861,-1.484 1.13,-1.95 0.269,-0.467 0.639,-1.512 1.108,-1.926 1.102,-0.29 2.611,-0.114 3.742,-0.05 0.603,-0.722 1.3,-1.357 1.992,-1.992 0.021,-0.866 -0.308,-2.873 0.055,-3.745 0.34,-0.517 1.488,-0.855 1.954,-1.124 0.466,-0.269 1.31,-0.99 1.922,-1.114 1.086,0.293 2.325,1.211 3.261,1.824 l 0.03,-0.011 c 0.878,-0.296 1.776,-0.524 2.686,-0.695 0.368,-0.749 0.746,-1.493 1.166,-2.214 0.191,-0.328 0.429,-0.805 0.765,-1.023 0.553,-0.278 1.716,0.004 2.254,0.004 0.538,0 1.629,-0.203 2.222,-0.004 0.501,0.412 0.809,1.107 1.111,1.66 0.278,0.511 0.544,1.031 0.802,1.553 0.92,0.194 1.846,0.405 2.731,0.729 0.67,-0.358 2.417,-1.734 3.254,-1.819 0.612,0.123 1.456,0.844 1.922,1.113 0.466,0.269 1.614,0.607 1.954,1.125 0.301,1.188 0.129,2.521 0.055,3.733 0.727,0.607 1.367,1.308 2.006,2.004 0.744,0.04 2.946,-0.304 3.737,0.051 0.469,0.413 0.839,1.459 1.108,1.926 0.27,0.466 1.095,1.332 1.13,1.95 -0.336,1.183 -1.13,2.218 -1.8,3.235 l -0.014,0.021 0.017,0.047 c 0.314,0.876 0.517,1.786 0.712,2.695 0.645,0.401 2.705,1.225 3.196,1.906 0.199,0.592 -0.003,1.683 -0.003,2.221 0,0.539 0.281,1.701 0.003,2.255 -0.883,0.856 -2.088,1.356 -3.176,1.901 l -0.014,0.006 c -0.154,0.929 -0.441,1.828 -0.718,2.726 l -0.013,0.034 0.015,0.022 c 0.356,0.666 1.71,2.387 1.795,3.217 -0.124,0.613 -0.845,1.456 -1.114,1.923 -0.269,0.466 -0.607,1.613 -1.124,1.954 -0.401,0.165 -0.843,0.144 -1.268,0.15 -0.817,0.005 -1.633,-0.042 -2.447,-0.094 -0.612,0.733 -1.319,1.378 -2.021,2.022 -0.039,0.742 0.301,2.925 -0.052,3.712 -0.414,0.469 -1.46,0.839 -1.926,1.108 -0.466,0.269 -1.332,1.094 -1.951,1.13 -1.184,-0.337 -2.22,-1.131 -3.237,-1.802 l -0.053,0.019 c -0.883,0.318 -1.801,0.521 -2.718,0.717 l -0.01,0.022 c -0.399,0.642 -1.213,2.675 -1.889,3.163 -0.593,0.199 -1.684,-0.003 -2.222,-0.003 -0.538,0 -1.701,0.281 -2.254,0.003 z"
         id="path3797"
         style="fill:url(#pattern6808);fill-opacity:1"
         inkscape:connector-curvature="0" />
      <path
         d="m 651.03,266.28 -6.036,-8.327 17.642,-3.148 -2.785,9.901 -4.257,0.749 z m -1.493,-33.874 c 14.056,-2.508 23.417,-15.935 20.909,-29.99 -2.508,-14.056 -15.936,-23.417 -29.991,-20.909 -14.056,2.508 -23.417,15.935 -20.909,29.991 2.508,14.055 15.936,23.416 29.991,20.908 z m -28.651,-21.147 c -2.376,-13.316 6.492,-26.037 19.808,-28.413 13.316,-2.376 26.036,6.493 28.412,19.809 2.376,13.315 -6.492,26.036 -19.808,28.412 -13.316,2.376 -26.036,-6.492 -28.412,-19.808 z m 27.308,13.619 c 9.897,-1.766 16.489,-11.221 14.723,-21.119 -1.766,-9.898 -11.221,-16.489 -21.119,-14.723 -9.897,1.766 -16.489,11.221 -14.723,21.118 1.766,9.898 11.221,16.49 21.119,14.724 z m -33.528,33.418 c -2.441,-1.722 -4.897,-3.422 -7.351,-5.125 0.801,-3.346 0.682,-8.609 2.256,-11.715 l 0.022,-0.036 c -4.838,-4.831 -8.193,-10.839 -10.747,-17.127 l -1.699,0.303 -9.9,-2.784 c -0.509,-2.943 -1.042,-5.882 -1.574,-8.821 3.066,-1.876 6.535,-5.648 10.035,-6.728 0.011,-6.7 1.554,-13.271 4.159,-19.42 -1.484,-1.23 -2.303,-3.036 -3.199,-4.701 -1.611,-2.993 -1.37,-2.539 -3.011,-5.516 1.721,-2.441 3.422,-4.896 5.124,-7.35 0.614,0.097 1.226,0.199 1.84,0.29 2.376,0.351 7.493,0.758 9.759,1.907 4.817,-4.977 10.847,-8.463 17.206,-11.077 -0.832,-4.663 -0.348,-0.868 2.555,-11.188 5.986,-1.055 3.046,-0.53 8.821,-1.574 6.292,8.679 5.434,4.951 6.266,9.614 6.919,-0.026 13.67,1.703 19.984,4.446 1.438,-1.613 3.513,-2.483 5.382,-3.485 2.071,-1.111 2.675,-1.454 4.732,-2.591 2.441,1.721 4.897,3.422 7.351,5.124 -0.364,2.294 -0.676,4.6 -0.781,6.921 -0.033,0.734 0.029,1.515 -0.237,2.216 -0.32,0.845 -1.012,1.61 -1.523,2.341 4.852,4.813 8.309,10.765 10.873,17.054 1.96,-0.205 3.854,0.501 5.706,1.056 3.244,0.973 2.776,0.829 6.03,1.771 0.508,2.944 1.043,5.882 1.574,8.821 -1.883,1.371 -3.744,2.781 -5.464,4.353 -0.544,0.497 -1.067,1.095 -1.759,1.4 -0.849,0.373 -1.901,0.427 -2.803,0.587 0.024,6.831 -1.514,13.538 -4.168,19.808 1.484,1.23 2.303,3.037 3.198,4.701 1.611,2.993 1.371,2.539 3.012,5.516 -1.722,2.441 -3.422,4.897 -5.124,7.35 -0.614,-0.096 -1.226,-0.199 -1.84,-0.289 -2.376,-0.351 -7.493,-0.759 -9.759,-1.907 -4.817,4.976 -10.847,8.463 -17.206,11.077 l 0.23,1.287 -17.642,3.148 -0.23,-1.287 c -1.555,0.017 -3.099,-0.127 -4.646,-0.249 -5.448,-0.464 -10.66,-2.195 -15.655,-4.34 l -0.828,1.187 z"
         id="path3799"
         style="fill:url(#pattern6808);fill-opacity:1"
         inkscape:connector-curvature="0" />
      <path
         d="m 589.265,173.725 c 0.097,-0.631 0.138,-1.27 0.182,-1.908 1.553,-0.399 3.131,-0.889 4.656,-1.47 0.004,-0.866 -0.051,-1.729 -0.123,-2.59 -1.607,-0.527 -3.198,-0.951 -4.823,-1.262 -0.087,-0.634 -0.238,-1.255 -0.37,-1.88 -0.17,-0.617 -0.319,-1.239 -0.528,-1.843 1.325,-0.938 2.592,-1.951 3.82,-3.046 -0.313,-0.805 -0.657,-1.601 -1.049,-2.371 -1.673,0.075 -3.335,0.266 -4.948,0.55 -0.33,-0.547 -0.658,-1.096 -1.033,-1.614 -0.357,-0.53 -0.755,-1.031 -1.15,-1.534 0.878,-1.341 1.708,-2.761 2.45,-4.224 -0.585,-0.638 -1.202,-1.241 -1.833,-1.831 -1.548,0.698 -3.006,1.451 -4.417,2.316 -0.494,-0.405 -1.02,-0.769 -1.542,-1.138 -0.536,-0.348 -1.071,-0.696 -1.631,-1.006 0.347,-1.591 0.593,-3.18 0.768,-4.827 -0.777,-0.378 -1.564,-0.733 -2.371,-1.042 -1.183,1.182 -2.286,2.449 -3.285,3.74 -0.612,-0.186 -1.227,-0.36 -1.85,-0.498 -0.623,-0.144 -1.251,-0.265 -1.884,-0.356 -0.252,-1.593 -0.595,-3.197 -1.031,-4.774 -0.861,-0.086 -1.728,-0.114 -2.591,-0.117 -0.677,1.538 -1.244,3.101 -1.704,4.681 -0.639,0.035 -1.275,0.118 -1.907,0.204 -0.632,0.095 -1.261,0.207 -1.883,0.353 -0.816,-1.412 -1.704,-2.746 -2.684,-4.084 -0.826,0.246 -1.649,0.507 -2.453,0.826 -0.081,1.666 -0.039,3.354 0.089,4.975 -0.572,0.283 -1.15,0.557 -1.701,0.882 -0.564,0.304 -1.097,0.657 -1.635,1.001 -1.251,-0.994 -2.596,-1.962 -3.978,-2.829 -0.691,0.521 -1.35,1.081 -1.994,1.657 0.548,1.603 1.168,3.127 1.898,4.611 -0.45,0.454 -0.861,0.945 -1.274,1.433 -0.4,0.498 -0.792,1.003 -1.154,1.53 -1.552,-0.493 -3.109,-0.88 -4.737,-1.208 -0.444,0.739 -0.87,1.49 -1.254,2.264 1.075,1.291 2.222,2.499 3.425,3.616 -0.248,0.589 -0.47,1.189 -0.67,1.795 -0.192,0.61 -0.387,1.22 -0.526,1.844 -1.618,0.101 -3.236,0.295 -4.851,0.583 -0.159,0.849 -0.282,1.708 -0.356,2.569 1.464,0.815 2.979,1.527 4.5,2.132 -0.006,0.639 -0.016,1.279 0.03,1.917 0.027,0.639 0.099,1.273 0.174,1.909 -1.462,0.68 -2.896,1.447 -4.31,2.301 0.171,0.845 0.359,1.685 0.598,2.514 1.658,0.229 3.333,0.347 4.965,0.366 0.223,0.598 0.449,1.198 0.718,1.777 0.251,0.589 0.551,1.154 0.848,1.719 -1.111,1.156 -2.196,2.403 -3.189,3.699 0.453,0.737 0.952,1.446 1.467,2.14 1.642,-0.393 3.224,-0.876 4.765,-1.462 0.41,0.492 0.861,0.945 1.311,1.4 0.454,0.448 0.926,0.88 1.416,1.291 -0.629,1.494 -1.164,3.018 -1.639,4.606 0.698,0.512 1.407,1.003 2.141,1.458 1.387,-0.96 2.689,-1.979 3.916,-3.081 0.563,0.303 1.141,0.574 1.725,0.834 0.59,0.244 1.179,0.494 1.788,0.692 -0.05,1.623 -0.004,3.244 0.13,4.885 0.832,0.233 1.673,0.439 2.525,0.591 0.946,-1.376 1.798,-2.83 2.54,-4.279 0.637,0.061 1.271,0.132 1.911,0.144 0.638,0.039 1.278,0.017 1.917,0.007 0.542,1.505 1.177,3.032 1.895,4.499 0.862,-0.081 1.715,-0.211 2.566,-0.36 0.373,-1.655 0.651,-3.271 0.812,-4.918 0.621,-0.155 1.232,-0.341 1.838,-0.547 0.601,-0.211 1.205,-0.428 1.789,-0.689 1.052,1.225 2.185,2.408 3.386,3.52 0.777,-0.378 1.529,-0.81 2.266,-1.262 -0.233,-1.663 -0.571,-3.292 -1.01,-4.878 0.52,-0.37 1.024,-0.765 1.513,-1.177 0.491,-0.408 0.959,-0.845 1.419,-1.289 1.423,0.757 2.902,1.441 4.434,2.052 0.578,-0.643 1.127,-1.309 1.651,-1.995 -0.836,-1.475 -1.719,-2.857 -2.711,-4.183 0.356,-0.531 0.674,-1.087 0.991,-1.642 0.296,-0.565 0.597,-1.13 0.852,-1.716 1.614,0.199 3.225,0.301 4.877,0.32 0.306,-0.806 0.589,-1.624 0.821,-2.456 -1.28,-1.07 -2.655,-2.053 -4.025,-2.926 0.121,-0.628 0.245,-1.255 0.321,-1.891 z m -5.335,-0.71 c -0.314,2.369 -1.075,4.685 -2.229,6.79 -1.153,2.104 -2.703,3.989 -4.533,5.529 -1.833,1.541 -3.945,2.733 -6.214,3.509 -2.274,0.788 -4.694,1.125 -7.079,1.035 -2.388,-0.093 -4.759,-0.635 -6.959,-1.591 -2.202,-0.951 -4.224,-2.322 -5.927,-4.006 -1.706,-1.683 -3.091,-3.679 -4.068,-5.861 -0.983,-2.178 -1.562,-4.571 -1.683,-6.957 -0.127,-2.388 0.191,-4.795 0.941,-7.071 0.746,-2.277 1.919,-4.42 3.442,-6.273 1.52,-1.855 3.382,-3.421 5.464,-4.595 2.079,-1.169 4.387,-1.975 6.769,-2.313 2.373,-0.346 4.797,-0.253 7.131,0.282 2.331,0.533 4.571,1.502 6.558,2.848 1.989,1.344 3.724,3.057 5.085,5.021 1.365,1.964 2.353,4.179 2.927,6.518 0.559,2.342 0.691,4.764 0.375,7.135"
         id="path3801"
         style="fill:url(#pattern6808);fill-opacity:1"
         inkscape:connector-curvature="0" />
      <path
         d="m 503.131,176.047 c 7.226,0 13.083,-5.857 13.083,-13.083 0,-7.225 -5.857,-13.082 -13.083,-13.082 -7.225,0 -13.083,5.857 -13.083,13.082 0,7.226 5.858,13.083 13.083,13.083 z m -0.008,-1.102 c -6.621,0 -11.988,-5.367 -11.988,-11.988 0,-6.621 5.367,-11.989 11.988,-11.989 6.621,0 11.989,5.368 11.989,11.989 0,6.621 -5.368,11.988 -11.989,11.988 z m 0,-2.187 c 5.414,0 9.802,-4.388 9.802,-9.801 0,-5.414 -4.388,-9.802 -9.802,-9.802 -5.413,0 -9.801,4.388 -9.801,9.802 0,5.413 4.388,9.801 9.801,9.801 z m -2.199,14.034 c -0.847,-0.861 -1.433,-2.245 -1.964,-3.316 -0.817,-0.176 -1.609,-0.443 -2.396,-0.721 -0.759,0.42 -2.498,1.828 -3.449,1.951 -0.61,-0.035 -1.464,-0.849 -1.924,-1.115 -0.459,-0.265 -1.491,-0.63 -1.899,-1.093 -0.094,-0.307 -0.11,-0.317 -0.144,-0.721 -0.035,-0.412 -0.002,-0.831 0.014,-1.244 0.056,-1.462 0.025,-0.833 0.118,-2.293 -0.487,-0.455 -0.932,-0.949 -1.38,-1.442 -1.017,0.092 -2.037,0.12 -3.057,0.14 -0.424,-0.025 -0.849,0.016 -1.25,-0.149 -0.511,-0.335 -0.844,-1.467 -1.109,-1.927 -0.266,-0.46 -0.977,-1.292 -1.099,-1.896 -0.068,-0.511 2.208,-3.824 2.208,-3.824 l 0.057,0.014 c -0.205,-0.602 -0.343,-1.223 -0.476,-1.844 -0.02,0.02 -0.042,0.039 -0.063,0.058 0,0 -3.549,-1.661 -3.823,-2.207 -0.275,-0.546 0.003,-1.692 0.003,-2.223 0,-0.531 -0.2,-1.607 -0.003,-2.192 0.196,-0.476 3.823,-2.207 3.823,-2.207 l 0.063,0.059 c 0.111,-0.625 0.292,-1.234 0.475,-1.841 l -0.046,0.011 0.012,-0.003 -0.023,0.005 c 0,0 -2.243,-3.214 -2.207,-3.823 0.035,-0.61 0.849,-1.464 1.114,-1.924 0.266,-0.46 0.631,-1.492 1.093,-1.9 0.308,-0.094 0.318,-0.11 0.721,-0.144 0.412,-0.035 0.832,-0.002 1.244,0.014 1.489,0.058 0.853,0.027 2.34,0.122 0.451,-0.494 0.895,-1.001 1.391,-1.452 -0.018,-0.25 -0.039,-0.499 -0.053,-0.748 -0.036,-0.634 -0.251,-2.737 0.067,-3.499 0.335,-0.51 1.467,-0.843 1.927,-1.109 0.459,-0.265 1.291,-0.976 1.896,-1.098 1.091,0.291 2.508,1.332 3.437,1.946 0.779,-0.308 1.591,-0.509 2.399,-0.722 0.38,-0.78 0.772,-1.555 1.209,-2.306 0.188,-0.322 0.422,-0.794 0.754,-1.008 0.545,-0.274 1.692,0.003 2.223,0.003 0.531,0 1.607,-0.199 2.191,-0.003 0.494,0.406 0.798,1.091 1.096,1.637 0.253,0.465 0.494,0.937 0.731,1.411 1.017,0.116 2.004,0.403 2.985,0.687 0.762,-0.407 2.09,-1.519 2.978,-1.642 0.604,0.122 1.436,0.833 1.896,1.098 0.46,0.266 1.591,0.599 1.927,1.109 0.287,1.018 0.152,2.097 0.088,3.137 0.954,0.73 1.778,1.608 2.593,2.486 0.678,0.03 2.387,-0.226 3.038,0.086 0.462,0.408 0.827,1.44 1.093,1.9 0.265,0.459 1.079,1.314 1.114,1.923 -0.23,0.948 -0.829,1.754 -1.358,2.556 0.491,1.193 0.762,2.458 1.03,3.715 l 0.003,0.023 c 0.729,0.495 1.882,0.777 2.407,1.501 0.196,0.585 -0.003,1.661 -0.003,2.192 0,0.531 0.277,1.677 0.003,2.223 -0.66,0.696 -1.566,1.086 -2.408,1.512 l -0.002,0.012 c -0.207,1.277 -0.599,2.512 -1.034,3.727 0.369,0.721 1.246,1.71 1.361,2.547 -0.122,0.604 -0.832,1.436 -1.098,1.896 -0.266,0.46 -0.598,1.592 -1.109,1.927 -0.395,0.163 -0.831,0.143 -1.25,0.149 -1.198,-0.018 -0.599,0 -1.796,-0.056 -0.769,0.917 -1.673,1.703 -2.582,2.474 -0.031,0.698 0.24,2.477 -0.081,3.144 -0.408,0.462 -1.439,0.828 -1.899,1.093 -0.46,0.266 -1.314,1.079 -1.924,1.115 -1.11,-0.297 -2.052,-1.013 -2.994,-1.645 -0.971,0.331 -1.978,0.532 -2.988,0.706 -0.397,0.634 -1.17,2.586 -1.817,3.028 -0.584,0.197 -1.66,-0.003 -2.191,-0.003 -0.531,0 -1.678,0.278 -2.223,0.003 z"
         id="path3803"
         style="fill:url(#pattern6808);fill-opacity:1"
         inkscape:connector-curvature="0" />
      <path
         d="m 520.272,359.045 -9.449,-11.808 25.693,-5.857 -3.397,14.736 -6.201,1.399 z m -4.561,-49.649 c 20.47,-4.667 33.281,-25.044 28.614,-45.513 -4.666,-20.47 -25.043,-33.281 -45.513,-28.615 -20.47,4.667 -33.281,25.044 -28.614,45.513 4.666,20.47 25.043,33.281 45.513,28.615 z m -43.563,-29.059 c -4.42,-19.393 7.716,-38.697 27.109,-43.118 19.392,-4.421 38.697,7.716 43.117,27.108 4.421,19.393 -7.715,38.697 -27.108,43.118 -19.392,4.421 -38.697,-7.716 -43.118,-27.108 z m 41.063,18.094 c 14.415,-3.286 23.436,-17.635 20.15,-32.049 -3.286,-14.414 -17.635,-23.435 -32.049,-20.149 -14.415,3.286 -23.436,17.634 -20.15,32.049 3.286,14.414 17.635,23.435 32.049,20.149 z m -46.91,51.429 c -3.706,-2.357 -7.431,-4.684 -11.155,-7.013 0.943,-4.971 0.4,-12.692 2.495,-17.365 l 0.029,-0.054 c -7.444,-6.758 -12.791,-15.348 -16.982,-24.405 l -2.475,0.564 -14.736,-3.398 c -0.953,-4.287 -1.942,-8.566 -2.929,-12.846 4.372,-2.97 9.204,-8.753 14.269,-10.584 -0.452,-9.842 1.356,-19.601 4.752,-28.815 -2.266,-1.703 -3.595,-4.299 -5.027,-6.681 -2.576,-4.284 -2.19,-3.634 -4.809,-7.892 2.358,-3.706 4.684,-7.431 7.013,-11.155 0.907,0.099 1.814,0.207 2.722,0.298 3.515,0.349 11.059,0.59 14.468,2.118 6.727,-7.646 15.341,-13.189 24.498,-17.473 -1.548,-6.79 -0.572,-1.251 2.97,-16.612 8.719,-1.968 4.437,-0.991 12.847,-2.928 9.849,12.308 8.328,6.893 9.876,13.683 10.161,-0.521 20.198,1.547 29.664,5.134 1.999,-2.47 4.986,-3.893 7.661,-5.496 2.965,-1.777 3.828,-2.322 6.77,-4.137 3.706,2.358 7.431,4.684 11.155,7.013 -0.374,3.394 -0.671,6.803 -0.662,10.22 0.002,1.081 0.147,2.224 -0.194,3.271 -0.411,1.264 -1.374,2.437 -2.073,3.546 7.463,6.73 12.957,15.231 17.162,24.29 2.865,-0.439 5.696,0.466 8.455,1.152 4.834,1.202 4.136,1.024 8.981,2.18 0.952,4.287 1.943,8.566 2.929,12.846 -2.67,2.145 -5.304,4.346 -7.722,6.776 -0.764,0.768 -1.491,1.683 -2.485,2.178 -1.221,0.608 -2.762,0.761 -4.076,1.059 0.512,10.032 -1.278,19.99 -4.738,29.386 2.266,1.703 3.595,4.299 5.027,6.681 2.576,4.284 2.19,3.634 4.809,7.892 -2.358,3.705 -4.684,7.431 -7.013,11.154 -0.907,-0.099 -1.814,-0.206 -2.722,-0.297 -3.515,-0.349 -11.059,-0.59 -14.468,-2.119 -6.727,7.646 -15.341,13.19 -24.498,17.474 l 0.427,1.875 -25.693,5.857 -0.427,-1.875 c -2.282,0.133 -4.561,0.03 -6.842,-0.04 -8.034,-0.301 -15.811,-2.48 -23.298,-5.281 l -1.133,1.802 z m 52.646,-26.306 c 2.829,-0.645 4.599,-3.462 3.954,-6.291 -0.646,-2.829 -3.462,-4.6 -6.292,-3.954 -2.829,0.645 -4.599,3.462 -3.954,6.291 0.646,2.829 3.462,4.6 6.292,3.954 z m -57.471,-35.388 c 2.83,-0.645 4.6,-3.462 3.954,-6.291 -0.645,-2.829 -3.462,-4.6 -6.291,-3.954 -2.829,0.645 -4.599,3.462 -3.954,6.291 0.646,2.829 3.462,4.599 6.291,3.954 z m 93.908,-21.423 c 2.829,-0.645 4.599,-3.462 3.954,-6.291 -0.646,-2.829 -3.462,-4.599 -6.291,-3.954 -2.83,0.645 -4.6,3.462 -3.954,6.291 0.645,2.829 3.462,4.6 6.291,3.954 z m -57.86,-37.096 c 2.829,-0.646 4.599,-3.462 3.954,-6.291 -0.646,-2.83 -3.462,-4.6 -6.291,-3.954 -2.829,0.645 -4.6,3.462 -3.954,6.291 0.645,2.829 3.462,4.599 6.291,3.954 z"
         id="path3805"
         style="fill:url(#pattern6808);fill-opacity:1"
         inkscape:connector-curvature="0" />
      <path
         d="m 464.962,179.716 c 0.049,-1.365 -0.079,-2.726 -0.298,-4.072 -0.282,-1.335 -0.653,-2.65 -1.191,-3.906 2.424,-2.156 4.571,-4.749 6.327,-7.713 -1.269,-1.946 -2.742,-3.768 -4.453,-5.333 -3.414,1.004 -6.516,2.55 -9.18,4.532 -1.14,-0.749 -2.395,-1.311 -3.675,-1.775 -1.282,-0.469 -2.622,-0.75 -3.972,-0.946 -0.66,-3.139 -1.837,-6.337 -3.523,-9.313 -2.322,0.085 -4.601,0.52 -6.825,1.158 -0.844,3.48 -1.054,6.946 -0.69,10.215 -1.188,0.669 -2.337,1.415 -3.364,2.314 -1.026,0.895 -1.994,1.872 -2.787,2.982 -3.105,-1.04 -6.392,-1.578 -9.84,-1.637 -1.088,2.05 -1.863,4.256 -2.416,6.514 2.592,2.47 5.485,4.385 8.513,5.699 -0.048,1.366 0.08,2.726 0.299,4.072 0.281,1.335 0.652,2.65 1.191,3.906 -2.425,2.157 -4.572,4.749 -6.328,7.713 1.269,1.946 2.741,3.768 4.453,5.334 3.414,-1.005 6.516,-2.55 9.18,-4.532 1.14,0.748 2.395,1.311 3.674,1.775 1.283,0.469 2.623,0.749 3.973,0.945 0.661,3.139 1.838,6.338 3.524,9.314 2.322,-0.086 4.6,-0.52 6.824,-1.159 0.843,-3.479 1.054,-6.946 0.69,-10.215 1.188,-0.669 2.337,-1.414 3.364,-2.314 1.026,-0.895 1.994,-1.872 2.787,-2.981 3.105,1.039 6.392,1.578 9.84,1.637 1.088,-2.05 1.863,-4.256 2.416,-6.514 -2.592,-2.471 -5.484,-4.385 -8.513,-5.7 z m -10.863,-2.1 c 0.486,2.737 -0.478,5.699 -2.663,7.5 -2.063,1.823 -5.215,2.411 -7.795,1.455 -2.687,-0.892 -4.654,-3.307 -5.189,-6.035 -0.486,-2.739 0.479,-5.699 2.663,-7.501 2.062,-1.822 5.213,-2.41 7.793,-1.454 2.688,0.891 4.656,3.308 5.191,6.035"
         id="path3807"
         style="fill:url(#pattern6808);fill-opacity:1"
         inkscape:connector-curvature="0" />
      <path
         d="m 383.746,233.536 c 9.328,0 16.89,-7.562 16.89,-16.89 0,-9.328 -7.562,-16.89 -16.89,-16.89 -9.328,0 -16.89,7.562 -16.89,16.89 0,9.328 7.562,16.89 16.89,16.89 z m -0.007,29.756 c -2.082,-0.106 -3.197,-1.977 -3.906,-3.713 l -0.001,-0.006 c -0.763,-2.051 -0.473,-4.257 -0.716,-6.388 l -0.03,-0.011 c -0.326,-1.287 -2.109,-2.461 -3.178,-3.073 -2.22,-1.272 -4.771,-2.143 -7.305,-2.495 -0.438,-0.061 -0.881,-0.082 -1.322,-0.122 -0.931,0.011 -1.989,-0.049 -2.831,0.44 l -0.117,-0.042 -0.003,-0.025 c -0.692,0.634 -1.3,1.352 -1.903,2.069 -2.57,3.063 -6.188,4.257 -8.082,2.668 l -0.01,-0.009 c -1.729,-1.666 -1.173,-4.293 -0.209,-6.217 -1.004,0.596 -2.094,0.801 -3.222,0.958 -1.201,0.05 -2.234,-0.282 -3.097,-1.118 l -0.008,-0.011 c -1.59,-1.894 -0.395,-5.512 2.667,-8.082 0.722,-0.598 1.406,-1.241 2.07,-1.902 l -0.026,-0.003 -0.04,-0.112 c 0.791,-1.476 0.402,-3.995 0.054,-5.54 -0.454,-2.018 -1.195,-4.008 -2.232,-5.801 -0.4,-0.691 -0.894,-1.42 -1.438,-2.012 -0.41,-0.447 -0.961,-0.968 -1.575,-1.119 l -0.069,-0.194 c -0.839,-0.088 -1.681,-0.128 -2.523,-0.163 l -0.349,0.011 c -3.997,0 -7.238,-2.005 -7.238,-4.477 v -0.013 c 0.016,-0.52 0.105,-1.057 0.325,-1.532 1.001,-2.153 4.364,-3.065 6.513,-3.133 1.092,0.018 2.179,-0.077 3.268,-0.154 l 0.023,-0.064 c 0.136,-0.034 0.28,-0.042 0.407,-0.102 1.287,-0.603 2.163,-1.932 2.844,-3.121 1.038,-1.813 1.779,-3.822 2.233,-5.86 0.198,-0.891 0.345,-1.852 0.384,-2.767 0.005,-2.088 0.157,-2.168 -1.158,-3.463 -0.474,-0.466 -0.961,-0.892 -1.473,-1.317 -3.062,-2.57 -4.257,-6.188 -2.667,-8.082 l 0.008,-0.01 c 1.684,-1.797 4.32,-1.115 6.252,-0.192 -1.02,-2.028 -1.529,-4.535 0.176,-6.286 l 0.01,-0.008 c 1.894,-1.589 5.512,-0.395 8.082,2.667 0.597,0.724 1.241,1.406 1.903,2.07 l 0.003,-0.025 0.117,-0.042 c 1.496,0.793 4.032,0.405 5.598,0.056 2.037,-0.455 4.047,-1.195 5.86,-2.233 1.079,-0.618 2.854,-1.771 3.178,-3.073 l 0.047,-0.017 c 0.171,-1.858 0.04,-3.705 0.479,-5.53 0.07,-0.292 0.11,-0.557 0.223,-0.829 0.524,-1.485 1.465,-3.083 3.052,-3.612 0.353,-0.118 0.702,-0.106 1.066,-0.131 2.472,0 4.476,3.241 4.476,7.239 0.036,1.914 -0.011,0.958 0.14,2.866 l 0.207,0.074 c 0.359,1.274 2.063,2.395 3.131,3.013 1.792,1.037 3.782,1.778 5.801,2.233 1.263,0.284 2.594,0.472 3.893,0.368 0.532,-0.043 1.169,-0.143 1.646,-0.423 l 0.113,0.041 0.003,0.027 c 0.683,-0.648 1.302,-1.348 1.902,-2.072 2.57,-3.062 6.188,-4.256 8.082,-2.667 l 0.011,0.008 c 1.703,1.64 1.193,4.252 0.237,6.157 1.934,-0.999 4.498,-1.435 6.19,0.221 l 0.009,0.01 c 1.589,1.894 0.395,5.512 -2.668,8.082 -0.722,0.599 -1.406,1.242 -2.07,1.903 l 0.026,0.003 0.042,0.117 c -0.794,1.496 -0.405,4.032 -0.056,5.598 0.454,2.037 1.194,4.047 2.232,5.86 0.618,1.079 1.771,2.854 3.074,3.178 l 0.01,0.03 c 1.559,0.2 3.132,0.077 4.688,0.293 1.957,0.273 4.089,1.223 5.095,2.999 0.261,0.461 0.289,1.031 0.325,1.545 0,2.472 -3.24,4.476 -7.238,4.476 l -0.342,-0.01 c -0.847,10e-4 -1.687,0.083 -2.528,0.16 l -0.071,0.197 c -1.273,0.359 -2.395,2.063 -3.013,3.131 -1.036,1.792 -1.778,3.782 -2.232,5.801 -0.285,1.263 -0.473,2.594 -0.368,3.892 0.043,0.533 0.142,1.17 0.422,1.647 l -0.04,0.113 -0.028,0.003 c 0.648,0.683 1.349,1.302 2.072,1.902 3.063,2.57 4.257,6.188 2.668,8.082 l -0.009,0.011 c -0.675,0.773 -1.611,1.054 -2.604,1.097 l -0.493,0.021 c -1.062,-0.084 -2.078,-0.391 -3.025,-0.865 1.004,2.012 1.481,4.495 -0.205,6.224 l -0.011,0.009 c -1.894,1.589 -5.512,0.395 -8.082,-2.668 -0.584,-0.737 -1.25,-1.399 -1.902,-2.074 l -0.003,0.03 -0.113,0.04 c -0.842,-0.48 -1.87,-0.425 -2.8,-0.438 -0.436,0.04 -0.875,0.061 -1.309,0.122 -2.808,0.394 -6.033,1.558 -8.34,3.206 -0.733,0.523 -1.793,1.371 -2.022,2.301 l -0.225,0.081 c -0.126,0.948 -0.127,1.906 -0.122,2.86 0,3.998 -2.004,7.238 -4.476,7.238 h -0.013 l -0.094,-0.007 -0.093,0.007 z"
         id="path3809"
         style="fill:url(#pattern6808);fill-opacity:1"
         inkscape:connector-curvature="0" />
      <path
         d="m 321.962,229.823 c -0.07,-0.905 -0.032,-1.823 -0.196,-2.72 2.14,-0.974 4.325,-2.187 6.29,-3.59 -0.302,-1.35 -0.728,-2.663 -1.239,-3.949 -2.496,-0.16 -5.027,-0.015 -7.368,0.34 -0.492,-0.764 -0.896,-1.589 -1.475,-2.294 -0.521,-0.748 -1.114,-1.438 -1.742,-2.097 1.211,-2.102 2.153,-4.254 2.976,-6.604 -1.046,-0.888 -2.141,-1.736 -3.317,-2.452 -2.127,1.353 -4.048,2.883 -5.774,4.614 -0.805,-0.43 -1.675,-0.706 -2.528,-1.024 -0.87,-0.257 -1.751,-0.507 -2.645,-0.663 -0.27,-2.33 -0.76,-4.773 -1.484,-7.089 -1.372,-0.099 -2.745,-0.14 -4.117,-0.027 -0.924,2.297 -1.572,4.764 -1.96,7.116 -0.895,0.156 -1.775,0.406 -2.645,0.663 -0.852,0.318 -1.722,0.594 -2.528,1.024 -1.613,-1.774 -3.411,-3.41 -5.366,-4.863 -1.2,0.683 -2.283,1.54 -3.369,2.384 0.673,2.479 1.494,4.735 2.62,6.921 -0.628,0.66 -1.22,1.349 -1.742,2.097 -0.579,0.705 -0.983,1.53 -1.475,2.294 -2.302,-0.468 -4.718,-0.738 -7.198,-0.787 -0.488,1.292 -0.99,2.581 -1.292,3.932 1.912,1.596 4.033,2.958 6.174,4.055 -0.165,0.897 -0.127,1.814 -0.197,2.719 0.07,0.906 0.032,1.823 0.197,2.72 -2.14,0.975 -4.326,2.187 -6.291,3.591 0.303,1.35 0.728,2.663 1.24,3.948 2.495,0.161 5.027,0.015 7.367,-0.339 0.492,0.764 0.896,1.588 1.475,2.294 0.522,0.748 1.114,1.437 1.742,2.097 -1.211,2.102 -2.153,4.253 -2.976,6.604 1.046,0.888 2.142,1.736 3.317,2.452 2.127,-1.354 4.048,-2.883 5.775,-4.614 0.805,0.429 1.675,0.706 2.527,1.024 0.87,0.257 1.751,0.507 2.645,0.663 0.27,2.329 0.76,4.773 1.484,7.088 1.372,0.1 2.745,0.141 4.118,0.028 0.923,-2.297 1.571,-4.765 1.959,-7.116 0.895,-0.156 1.775,-0.406 2.645,-0.663 0.853,-0.318 1.723,-0.595 2.528,-1.025 1.614,1.775 3.411,3.411 5.366,4.864 1.2,-0.683 2.284,-1.54 3.369,-2.384 -0.673,-2.48 -1.494,-4.735 -2.62,-6.921 0.628,-0.66 1.221,-1.349 1.742,-2.097 0.579,-0.706 0.983,-1.53 1.475,-2.295 2.303,0.469 4.718,0.738 7.199,0.788 0.487,-1.292 0.989,-2.582 1.291,-3.932 -1.912,-1.596 -4.032,-2.959 -6.173,-4.055 0.164,-0.897 0.126,-1.814 0.196,-2.72 z m -16.833,12.201 c -2.538,0.825 -5.393,0.825 -7.931,0 -2.518,-0.853 -4.858,-2.458 -6.405,-4.673 -1.616,-2.172 -2.422,-4.82 -2.464,-7.528 0.042,-2.708 0.848,-5.355 2.464,-7.527 1.547,-2.215 3.887,-3.82 6.405,-4.674 2.538,-0.824 5.393,-0.824 7.931,0 2.518,0.854 4.858,2.459 6.405,4.674 1.617,2.172 2.422,4.819 2.464,7.527 -0.042,2.708 -0.847,5.356 -2.464,7.528 -1.547,2.215 -3.887,3.82 -6.405,4.673"
         id="path3811"
         style="fill:url(#pattern6808);fill-opacity:1"
         inkscape:connector-curvature="0" />
      <path
         d="m 329.546,415.071 c 29.312,1.122 53.979,-21.63 55.097,-50.818 1.117,-29.189 -21.739,-53.76 -51.051,-54.882 -29.311,-1.122 -53.979,21.63 -55.096,50.818 -1.118,29.189 21.738,53.76 51.05,54.882 z m -2.481,64.056 c -10.899,-0.418 -19.417,-9.037 -19.025,-19.253 0.216,-5.202 -0.141,-10.751 -2.969,-15.272 -0.053,-0.084 -0.763,-1.043 -0.98,-1.206 -1.144,-0.859 -2.536,-1.045 -3.849,-1.519 -5.677,0.856 -9.698,5.042 -13.385,9.103 -0.185,0.308 -0.42,0.583 -0.635,0.87 -6.321,8.035 -18.394,9.082 -26.966,2.339 l -0.046,-0.037 c -8.572,-6.743 -10.396,-18.723 -4.075,-26.758 2.755,-3.429 9.175,-13.14 5.619,-18.007 -1.849,-2.531 -5.748,-2.615 -8.528,-2.879 -3.048,-0.06 -6.043,0.599 -9.004,1.24 -0.33,0.141 -0.68,0.224 -1.022,0.33 -9.837,2.785 -20.219,-3.465 -23.19,-13.958 l -0.016,-0.057 c -2.971,-10.494 2.594,-21.258 12.431,-24.043 4.878,-1.384 9.99,-3.299 13.366,-7.275 0.82,-0.966 1.851,-2.232 1.903,-3.567 0.224,-5.728 -9.962,-10.826 -14.38,-12.388 -9.595,-3.529 -14.321,-14.687 -10.557,-24.923 l 0.02,-0.056 c 3.765,-10.236 14.595,-15.673 24.19,-12.144 4.11,1.558 16.347,4.978 19.233,-0.892 2.486,-5.053 -2.096,-13.336 -4.86,-17.379 -5.688,-8.494 -2.953,-20.3 6.109,-26.368 l 0.049,-0.033 c 9.062,-6.068 21.02,-4.101 26.708,4.393 3.182,4.729 7.256,9.766 13.085,11.059 1.323,-0.485 2.718,-0.775 4.052,-1.194 4.128,-4.252 4.968,-10.55 5.23,-16.198 0.391,-10.216 9.542,-18.159 20.441,-17.742 l 0.058,0.002 c 10.899,0.418 19.416,9.037 19.025,19.253 -0.02,0.317 -0.041,0.634 -0.062,0.951 -0.005,0.035 -0.01,0.071 -0.015,0.106 0.22,5.097 0.266,11.177 3.775,15.312 0.615,0.725 3.303,1.336 4.326,1.722 5.881,-1.017 10.279,-5.546 13.796,-10.066 6.321,-8.035 18.394,-9.082 26.965,-2.339 l 0.047,0.036 c 8.571,6.744 10.396,18.724 4.075,26.759 -0.23,0.275 -0.443,0.562 -0.694,0.819 -2.948,4.021 -5.613,8.571 -5.865,13.668 -0.046,0.932 -0.16,1.14 0.032,1.962 0.2,0.854 1.039,1.896 1.706,2.447 4.798,3.961 12.382,1.864 17.755,0.419 9.837,-2.785 20.22,3.465 23.191,13.958 l 0.016,0.057 c 2.971,10.494 -2.595,21.258 -12.432,24.043 -4.829,1.45 -10.445,3.344 -13.616,7.583 -0.655,0.876 -1.662,2.059 -1.645,3.226 0.095,6.526 9.254,10.561 14.372,12.421 9.595,3.529 14.322,14.687 10.557,24.923 l -0.02,0.056 c -3.765,10.236 -14.595,15.673 -24.19,12.144 -0.344,-0.136 -0.693,-0.258 -1.026,-0.423 -2.838,-1.074 -5.862,-1.486 -8.85,-1.909 -2.999,-0.094 -8.611,0.012 -9.712,3.781 -1.63,5.578 2.313,12.458 5.215,16.822 5.688,8.494 2.953,20.3 -6.109,26.368 l -0.049,0.033 c -9.062,6.068 -21.019,4.101 -26.708,-4.393 -0.188,-0.301 -0.395,-0.589 -0.559,-0.904 -2.842,-3.742 -7.366,-9.475 -12.514,-10.159 -1.327,0.487 -2.726,0.778 -4.065,1.198 -4.128,4.252 -4.968,10.55 -5.23,16.198 -0.391,10.216 -9.542,18.159 -20.441,17.742 z"
         id="path3813"
         style="fill:url(#pattern6808);fill-opacity:1"
         inkscape:connector-curvature="0" />
      <path
         d="m 486.698,506.038 c 4.639,-15.054 -3.803,-31.018 -18.856,-35.657 -15.054,-4.639 -31.018,3.803 -35.657,18.856 -4.639,15.053 3.803,31.017 18.856,35.657 15.053,4.639 31.017,-3.803 35.657,-18.856 z m -22.846,54.368 c -0.914,0.04 -1.828,0.056 -2.742,0.074 l -3.67,-12.36 c -2.895,-10e-4 -5.752,-0.498 -8.589,-1.022 l -6.71,11.045 c -0.872,-0.275 -1.736,-0.573 -2.601,-0.869 l 0.776,-12.821 c -2.74,-1.039 -5.26,-2.55 -7.756,-4.065 l -10.005,8.16 c -0.751,-0.522 -1.487,-1.064 -2.225,-1.603 l 5.156,-12.158 c -2.026,-1.819 -3.718,-3.961 -5.408,-6.085 l -0.11,-0.155 -12.604,4.39 c -0.526,-0.747 -1.033,-1.508 -1.541,-2.268 l 9.348,-10.032 -0.05,-0.098 c -1.155,-2.336 -2.041,-4.788 -2.831,-7.268 l -13.701,-0.19 c -0.239,-0.883 -0.455,-1.771 -0.673,-2.659 l 12.477,-6.362 c -0.319,-2.561 -0.335,-5.142 -0.259,-7.716 l -13.256,-5.035 c 0.077,-0.911 0.178,-1.819 0.276,-2.728 l 14.267,-1.757 c 0.51,-2.456 1.37,-4.818 2.215,-7.173 l -10.807,-9.327 c 0.383,-0.83 0.789,-1.649 1.193,-2.47 l 13.924,3.21 c 1.29,-2.206 2.91,-4.191 4.52,-6.167 l -6.846,-12.248 c 0.645,-0.648 1.306,-1.279 1.966,-1.912 l 11.681,7.58 c 2.082,-1.695 4.308,-3.198 6.645,-4.516 l -2.166,-13.367 c 0.827,-0.389 1.664,-0.756 2.501,-1.125 l 8.062,10.692 0.028,-0.011 c 2.602,-0.939 5.311,-1.511 8.026,-2.006 l 2.459,-12.895 c 0.911,-0.082 1.823,-0.14 2.735,-0.201 l 3.819,12.476 c 2.862,0.1 5.748,0.343 8.541,1.005 l 6.6,-11.074 c 1.75,0.482 0.87,0.233 2.639,0.746 l -0.676,12.983 c 2.64,1.032 5.121,2.415 7.545,3.872 l 10.165,-8.15 c 0.725,0.557 1.435,1.132 2.147,1.706 l -5.198,11.977 c 2.12,1.874 3.889,4.093 5.648,6.297 l 12.59,-4.267 c 0.491,0.771 0.962,1.555 1.434,2.337 l -9.231,9.741 c 1.232,2.432 2.217,4.977 3.014,7.581 l 13.84,0.309 c 0.198,0.893 0.372,1.79 0.548,2.687 l -12.47,6.228 c 0.32,2.57 0.345,5.159 0.271,7.743 l 13.076,5.093 c -0.12,0.906 -0.263,1.809 -0.404,2.712 l -13.918,1.595 -0.002,0.011 c -0.519,2.52 -1.399,4.944 -2.265,7.361 l 10.601,9.305 c -0.422,0.811 -0.866,1.61 -1.307,2.411 l -13.541,-3.241 c -1.313,2.261 -2.972,4.29 -4.619,6.311 l 6.685,12.201 c -0.674,0.617 -1.364,1.217 -2.052,1.818 l -11.365,-7.511 c -2.081,1.695 -4.305,3.202 -6.641,4.52 l 2.061,13.434 c -0.845,0.35 -1.698,0.677 -2.551,1.006 l -7.886,-10.642 -0.079,0.029 c -2.642,0.959 -5.397,1.528 -8.156,2.027 z"
         id="path3815"
         style="fill:url(#pattern6808);fill-opacity:1"
         inkscape:connector-curvature="0" />
      <path
         d="m 604.74,430.635 c 20.965,0 37.959,-16.995 37.959,-37.959 0,-20.964 -16.994,-37.959 -37.959,-37.959 -20.964,0 -37.958,16.995 -37.958,37.959 0,20.964 16.994,37.959 37.958,37.959 z m -0.022,-3.197 c -19.211,0 -34.784,-15.573 -34.784,-34.784 0,-19.211 15.573,-34.784 34.784,-34.784 19.21,0 34.784,15.573 34.784,34.784 0,19.211 -15.574,34.784 -34.784,34.784 z m 0,-6.345 c 15.706,0 28.438,-12.733 28.438,-28.439 0,-15.706 -12.732,-28.439 -28.438,-28.439 -15.706,0 -28.439,12.733 -28.439,28.439 0,15.706 12.733,28.439 28.439,28.439 z m -6.383,40.719 c -2.455,-2.498 -4.157,-6.515 -5.698,-9.621 -2.37,-0.511 -4.669,-1.287 -6.951,-2.092 -2.201,1.218 -7.248,5.302 -10.006,5.659 -1.77,-0.102 -4.248,-2.463 -5.582,-3.233 -1.335,-0.771 -4.327,-1.83 -5.511,-3.171 -0.274,-0.893 -0.319,-0.923 -0.418,-2.092 -0.101,-1.197 -0.007,-2.413 0.039,-3.61 0.165,-4.243 0.075,-2.417 0.345,-6.655 -1.414,-1.319 -2.706,-2.754 -4.005,-4.184 -2.95,0.268 -5.911,0.349 -8.871,0.406 -1.23,-0.071 -2.463,0.048 -3.627,-0.431 -1.481,-0.973 -2.447,-4.257 -3.217,-5.592 -0.771,-1.334 -2.833,-3.748 -3.187,-5.501 -0.198,-1.481 6.404,-11.093 6.404,-11.093 l 0.168,0.039 c -0.596,-1.745 -0.996,-3.548 -1.382,-5.349 -0.059,0.058 -0.121,0.113 -0.183,0.168 0,0 -10.297,-4.821 -11.093,-6.404 -0.796,-1.584 0.009,-4.91 0.009,-6.451 0,-1.541 -0.579,-4.663 -0.009,-6.359 0.569,-1.38 11.093,-6.404 11.093,-6.404 l 0.183,0.172 c 0.32,-1.814 0.846,-3.582 1.378,-5.342 l -0.133,0.031 0.034,-0.009 -0.066,0.015 c 0,0 -6.507,-9.324 -6.405,-11.093 0.102,-1.769 2.463,-4.248 3.234,-5.582 0.77,-1.334 1.829,-4.327 3.171,-5.511 0.892,-0.274 0.922,-0.319 2.092,-0.418 1.196,-0.101 2.412,-0.007 3.609,0.04 4.32,0.169 2.475,0.077 6.788,0.354 1.311,-1.433 2.597,-2.906 4.037,-4.214 -0.052,-0.724 -0.114,-1.446 -0.155,-2.171 -0.103,-1.839 -0.727,-7.94 0.194,-10.15 0.974,-1.482 4.257,-2.447 5.592,-3.218 1.334,-0.77 3.748,-2.832 5.501,-3.187 3.166,0.844 7.277,3.867 9.972,5.646 2.261,-0.893 4.617,-1.475 6.961,-2.095 1.105,-2.262 2.24,-4.512 3.508,-6.688 0.546,-0.937 1.225,-2.304 2.187,-2.926 1.584,-0.796 4.91,0.009 6.451,0.009 1.541,0 4.663,-0.579 6.358,-0.009 1.434,1.178 2.315,3.165 3.179,4.748 0.736,1.35 1.434,2.721 2.122,4.095 2.951,0.336 5.816,1.17 8.659,1.993 2.212,-1.18 6.066,-4.408 8.641,-4.764 1.753,0.355 4.167,2.417 5.501,3.188 1.335,0.77 4.619,1.736 5.592,3.217 0.834,2.953 0.44,6.083 0.255,9.102 2.77,2.117 5.16,4.664 7.524,7.212 1.967,0.087 6.927,-0.656 8.814,0.25 1.341,1.184 2.4,4.176 3.171,5.511 0.77,1.334 3.131,3.812 3.233,5.582 -0.667,2.75 -2.404,5.087 -3.939,7.416 1.424,3.461 2.209,7.131 2.987,10.778 l 0.01,0.066 c 2.114,1.438 5.461,2.254 6.983,4.356 0.569,1.696 -0.009,4.818 -0.009,6.359 0,1.541 0.805,4.867 0.009,6.451 -1.913,2.018 -4.544,3.151 -6.988,4.386 l -0.005,0.036 c -0.6,3.705 -1.738,7.289 -2.999,10.813 1.071,2.093 3.614,4.963 3.95,7.39 -0.355,1.753 -2.417,4.167 -3.187,5.502 -0.771,1.334 -1.737,4.618 -3.218,5.591 -1.146,0.473 -2.411,0.413 -3.627,0.431 -3.476,-0.052 -1.739,0.001 -5.212,-0.161 -2.23,2.659 -4.852,4.94 -7.491,7.178 -0.09,2.024 0.696,7.185 -0.234,9.122 -1.183,1.341 -4.176,2.401 -5.511,3.171 -1.334,0.771 -3.812,3.132 -5.582,3.234 -3.222,-0.861 -5.953,-2.939 -8.686,-4.773 -2.818,0.961 -5.741,1.544 -8.669,2.049 -1.153,1.839 -3.397,7.505 -5.273,8.787 -1.695,0.57 -4.817,-0.009 -6.358,-0.009 -1.541,0 -4.867,0.805 -6.451,0.009 z"
         id="path3817"
         style="fill:url(#pattern6808);fill-opacity:1"
         inkscape:connector-curvature="0" />
      <path
         d="m 490.418,420.035 c 11.877,0 21.505,-9.588 21.505,-21.415 0,-11.827 -9.628,-21.415 -21.505,-21.415 -11.877,0 -21.505,9.588 -21.505,21.415 0,11.827 9.628,21.415 21.505,21.415 z m 0,-1.04 c -11.253,0 -20.375,-9.122 -20.375,-20.375 0,-11.253 9.122,-20.375 20.375,-20.375 11.253,0 20.375,9.122 20.375,20.375 0,11.253 -9.122,20.375 -20.375,20.375 z m 0,-3.625 c 9.251,0 16.75,-7.499 16.75,-16.75 0,-9.251 -7.499,-16.75 -16.75,-16.75 -9.251,0 -16.75,7.499 -16.75,16.75 0,9.251 7.499,16.75 16.75,16.75 z m -0.012,30.62 c -4.416,0 -7.996,-3.355 -7.996,-7.495 0.007,-2.108 -0.223,-4.348 -1.438,-6.133 -0.022,-0.033 -0.324,-0.41 -0.414,-0.473 -0.477,-0.329 -1.043,-0.383 -1.582,-0.555 -2.283,0.435 -3.845,2.191 -5.274,3.891 -0.07,0.127 -0.161,0.242 -0.244,0.362 -2.433,3.349 -7.301,3.959 -10.874,1.364 l -0.019,-0.014 c -3.573,-2.596 -4.496,-7.415 -2.063,-10.764 1.061,-1.43 3.508,-5.459 1.994,-7.372 -0.787,-0.996 -2.366,-0.97 -3.495,-1.033 -1.234,0.022 -2.436,0.336 -3.624,0.641 -0.131,0.062 -0.271,0.101 -0.408,0.149 -3.937,1.279 -8.235,-1.088 -9.599,-5.288 l -0.007,-0.023 c -1.365,-4.2 0.72,-8.641 4.657,-9.92 1.952,-0.636 3.991,-1.49 5.295,-3.151 0.317,-0.404 0.715,-0.931 0.715,-1.473 0.002,-2.321 -4.198,-4.225 -6.01,-4.789 -3.937,-1.279 -6.022,-5.721 -4.658,-9.921 l 0.008,-0.022 c 1.364,-4.2 5.662,-6.568 9.599,-5.289 1.687,0.567 6.691,1.761 7.768,-0.658 0.927,-2.083 -1.055,-5.364 -2.235,-6.957 -2.434,-3.348 -1.51,-8.167 2.063,-10.763 l 0.019,-0.014 c 3.573,-2.596 8.441,-1.985 10.874,1.364 1.361,1.864 3.087,3.839 5.466,4.272 0.527,-0.217 1.087,-0.356 1.621,-0.546 1.604,-1.784 1.846,-4.346 1.865,-6.635 0,-4.139 3.58,-7.495 7.996,-7.495 h 0.023 c 4.416,0 7.996,3.356 7.996,7.495 l -0.015,0.429 c 0.168,2.059 0.281,4.518 1.765,6.137 0.26,0.283 1.357,0.489 1.777,0.629 2.363,-0.502 4.073,-2.403 5.425,-4.286 2.434,-3.349 7.302,-3.96 10.875,-1.364 l 0.019,0.014 c 3.573,2.596 4.496,7.415 2.063,10.764 -0.089,0.114 -0.17,0.234 -0.268,0.342 -1.13,1.672 -2.138,3.555 -2.161,5.621 -0.004,0.378 -0.047,0.463 0.043,0.793 0.094,0.343 0.45,0.751 0.728,0.963 2.003,1.529 5.039,0.563 7.191,-0.105 3.937,-1.279 8.234,1.089 9.599,5.289 l 0.007,0.022 c 1.365,4.2 -0.72,8.642 -4.657,9.921 -1.932,0.661 -4.175,1.515 -5.392,3.279 -0.251,0.364 -0.64,0.858 -0.615,1.33 0.139,2.639 3.907,4.13 6.007,4.803 3.937,1.28 6.022,5.721 4.657,9.921 l -0.007,0.023 c -1.365,4.199 -5.662,6.567 -9.599,5.288 -0.142,-0.05 -0.285,-0.094 -0.422,-0.155 -1.165,-0.391 -2.395,-0.511 -3.61,-0.635 -1.215,0.008 -3.484,0.138 -3.871,1.679 -0.573,2.283 1.129,5.005 2.37,6.726 2.433,3.349 1.51,8.168 -2.063,10.763 l -0.019,0.014 c -3.573,2.596 -8.441,1.985 -10.874,-1.364 -0.081,-0.118 -0.169,-0.232 -0.241,-0.356 -1.207,-1.471 -3.127,-3.72 -5.22,-3.917 -0.53,0.217 -1.091,0.357 -1.627,0.547 -1.604,1.785 -1.846,4.346 -1.865,6.635 0,4.14 -3.579,7.495 -7.995,7.495 z"
         id="path3819"
         style="fill:url(#pattern6808);fill-opacity:1"
         inkscape:connector-curvature="0" />
      <path
         d="m 631.43,293.355 3.817,3.918 c 1.845,-1.762 3.2,-3.866 3.864,-6.347 0.215,-0.8 0.27,-1.634 0.405,-2.451 l -5.499,-0.53 c 0.013,1.294 -0.142,2.576 -0.907,3.665 -0.288,0.41 -0.671,0.746 -1.006,1.119 z m -8.484,6.93 2.471,0.408 0.521,-5.406 c -2.74,0.017 -3.623,-0.68 -5.404,-2.599 l -3.881,3.782 c 2.377,2.173 1.078,1.19 3.914,2.926 z m 5.228,-7.413 c 2.92,-1.027 4.454,-4.226 3.428,-7.146 -1.027,-2.92 -4.227,-4.454 -7.147,-3.427 -2.919,1.027 -4.454,4.226 -3.427,7.146 1.027,2.92 4.227,4.454 7.146,3.427 z m 10.434,-10.159 0.452,1.286 -0.254,-0.862 z m -25.438,3.988 5.442,0.524 c -0.016,-2.76 0.679,-3.639 2.613,-5.432 l -3.843,-3.944 c -1.814,1.738 -3.145,3.828 -3.795,6.271 -0.22,0.828 -0.279,1.691 -0.418,2.536 z m 18.295,-4.897 0.631,0.679 3.98,-3.879 c -1.755,-1.833 -3.854,-3.186 -6.323,-3.843 -0.828,-0.22 -1.691,-0.279 -2.536,-0.418 l -0.025,10e-4 -0.534,5.538 c 0.911,0.028 1.582,10e-4 2.504,0.301 0.421,0.137 0.786,0.406 1.18,0.608 z m 2.279,33.902 c -0.412,0.096 -0.826,0.182 -1.241,0.268 l -2.718,-5.289 c -1.337,0.233 -2.697,0.226 -4.049,0.212 l -2.058,5.612 c -0.422,-0.031 -0.843,-0.073 -1.264,-0.114 l -0.818,-6.059 c -1.236,-0.246 -2.416,-0.7 -3.59,-1.147 l -0.08,-0.035 -3.984,4.724 c -0.386,-0.173 -0.767,-0.357 -1.149,-0.539 l 1.355,-6.203 -0.044,-0.027 c -1.011,-0.658 -1.943,-1.426 -2.843,-2.227 l -5.502,3.159 c -0.304,-0.295 -0.599,-0.598 -0.896,-0.9 l 3.467,-5.48 c -0.731,-0.944 -1.347,-1.968 -1.925,-3.012 l -6.468,1.125 c -0.184,-0.381 -0.358,-0.767 -0.534,-1.152 l 5.268,-4.068 c -0.377,-1.099 -0.592,-2.242 -0.812,-3.38 l -6.506,-1.163 c -0.043,-0.421 -0.075,-0.843 -0.108,-1.265 l 6.304,-2.01 c -0.007,-1.183 0.169,-2.356 0.344,-3.523 l -5.618,-3.262 c 0.103,-0.41 0.218,-0.817 0.331,-1.225 l 6.442,0.261 c 0.429,-1.167 0.961,-2.291 1.58,-3.368 l -4.019,-4.812 c 0.238,-0.351 0.485,-0.694 0.731,-1.039 l 5.735,2.355 0.009,-0.011 c 0.815,-0.988 1.759,-1.855 2.723,-2.694 l -2.065,-5.716 c 0.343,-0.248 0.693,-0.486 1.042,-0.726 l 4.466,4.068 c 1.164,-0.636 2.37,-1.221 3.639,-1.617 l 0.015,-5.969 c 0.81,-0.221 0.401,-0.112 1.227,-0.325 l 2.796,5.33 c 1.295,-0.212 2.609,-0.247 3.919,-0.239 l 2.124,-5.646 c 0.42,0.05 0.839,0.112 1.258,0.172 l 0.757,5.998 c 1.287,0.246 2.516,0.712 3.737,1.174 l 4.007,-4.672 c 0.377,0.191 0.75,0.392 1.123,0.593 l -1.377,6.059 c 1.065,0.677 2.058,1.459 2.99,2.308 l 5.585,-3.145 c 0.29,0.309 0.571,0.625 0.853,0.941 l -3.496,5.424 c 0.734,0.948 1.355,1.974 1.936,3.02 l 6.41,-1.059 c 0.167,0.39 0.323,0.783 0.48,1.176 l -5.167,3.921 c 0.64,2.296 0.361,1.139 0.838,3.471 l 6.419,1.204 c 0.023,0.422 0.035,0.846 0.048,1.269 l -6.158,1.906 c 0.011,1.21 -0.171,2.41 -0.35,3.604 l 5.544,3.281 c -0.123,0.405 -0.256,0.807 -0.389,1.209 l -6.299,-0.309 c -0.429,1.167 -0.959,2.292 -1.578,3.369 l 3.992,4.863 c -0.253,0.339 -0.516,0.671 -0.778,1.004 l -5.653,-2.377 -0.025,0.03 c -0.826,1.006 -1.789,1.883 -2.77,2.733 l 2.018,5.737 c -0.354,0.231 -0.714,0.453 -1.074,0.676 l -4.38,-4.056 c -1.153,0.683 -2.409,1.16 -3.662,1.621 z"
         id="path3821"
         style="fill:url(#pattern6808);fill-opacity:1"
         inkscape:connector-curvature="0" />
    </g>
  </g>
</svg>
