<?xml version="1.0" encoding="UTF-8" standalone="no"?>
<!-- Svg Vector Icons : http://www.onlinewebfonts.com/icon -->

<svg
   xmlns:dc="http://purl.org/dc/elements/1.1/"
   xmlns:cc="http://creativecommons.org/ns#"
   xmlns:rdf="http://www.w3.org/1999/02/22-rdf-syntax-ns#"
   xmlns:svg="http://www.w3.org/2000/svg"
   xmlns="http://www.w3.org/2000/svg"
   xmlns:sodipodi="http://sodipodi.sourceforge.net/DTD/sodipodi-0.dtd"
   xmlns:inkscape="http://www.inkscape.org/namespaces/inkscape"
   version="1.1"
   x="0px"
   y="0px"
   viewBox="0 0 1000 1000"
   enable-background="new 0 0 1000 1000"
   xml:space="preserve"
   id="svg11602"
   sodipodi:docname="icon_twitter.svg"
   inkscape:version="0.92.1 unknown"><defs
     id="defs11606" /><sodipodi:namedview
     pagecolor="#ffffff"
     bordercolor="#666666"
     borderopacity="1"
     objecttolerance="10"
     gridtolerance="10"
     guidetolerance="10"
     inkscape:pageopacity="0"
     inkscape:pageshadow="2"
     inkscape:window-width="1366"
     inkscape:window-height="708"
     id="namedview11604"
     showgrid="false"
     inkscape:zoom="0.1668772"
     inkscape:cx="385.88746"
     inkscape:cy="773.94465"
     inkscape:window-x="0"
     inkscape:window-y="31"
     inkscape:window-maximized="1"
     inkscape:current-layer="svg11602" /><metadata
     id="metadata11562"> Svg Vector Icons : http://www.onlinewebfonts.com/icon <rdf:RDF><cc:Work
     rdf:about=""><dc:format>image/svg+xml</dc:format><dc:type
       rdf:resource="http://purl.org/dc/dcmitype/StillImage" /></cc:Work></rdf:RDF></metadata><g
     id="g11600"
     style="fill:#cccccc"><g
       id="g11568"
       style="fill:#cccccc"><g
         id="g11566"
         style="fill:#cccccc"><path
           d="M500,10C229.8,10,10,229.8,10,500c0,270.2,219.8,490,490,490c270.2,0,490-219.8,490-490C990,229.8,770.2,10,500,10z M718.6,387.9c0.2,4.9,0.3,9.8,0.3,14.6c0,149-113.4,320.8-320.9,320.8c-63.7,0-123-18.6-172.9-50.6c8.8,1,17.8,1.6,26.9,1.6c52.9,0,101.5-18,140.1-48.3c-49.3-0.9-91-33.5-105.4-78.3c6.9,1.3,14,2,21.2,2c10.3,0,20.3-1.3,29.7-3.9c-51.6-10.3-90.5-55.9-90.5-110.6c0-0.5,0-1,0-1.4c15.2,8.4,32.6,13.5,51.1,14.1c-30.2-20.2-50.2-54.7-50.2-93.9c0-20.7,5.5-40.1,15.3-56.7c55.6,68.3,138.7,113.1,232.4,117.9c-1.9-8.3-2.9-16.9-2.9-25.7c0-62.3,50.5-112.8,112.8-112.8c32.4,0,61.7,13.7,82.3,35.6c25.7-5.1,49.8-14.4,71.6-27.4c-8.5,26.3-26.3,48.4-49.7,62.4c22.8-2.7,44.6-8.8,64.8-17.7C759.8,352.1,740.6,372,718.6,387.9z"
           id="path11564"
           style="fill:#cccccc" /></g></g><g
       id="g11570"
       style="fill:#cccccc" /><g
       id="g11572"
       style="fill:#cccccc" /><g
       id="g11574"
       style="fill:#cccccc" /><g
       id="g11576"
       style="fill:#cccccc" /><g
       id="g11578"
       style="fill:#cccccc" /><g
       id="g11580"
       style="fill:#cccccc" /><g
       id="g11582"
       style="fill:#cccccc" /><g
       id="g11584"
       style="fill:#cccccc" /><g
       id="g11586"
       style="fill:#cccccc" /><g
       id="g11588"
       style="fill:#cccccc" /><g
       id="g11590"
       style="fill:#cccccc" /><g
       id="g11592"
       style="fill:#cccccc" /><g
       id="g11594"
       style="fill:#cccccc" /><g
       id="g11596"
       style="fill:#cccccc" /><g
       id="g11598"
       style="fill:#cccccc" /></g></svg>